<svg width="38" height="37" viewBox="0 0 38 37" fill="none" xmlns="http://www.w3.org/2000/svg">
<path d="M33.8642 17.3438C32.9057 17.3438 32.1298 18.1207 32.1298 19.0782V33.5312H4.37982V5.78125H18.8329C19.7914 5.78125 20.5673 5.00425 20.5673 4.04684C20.5673 3.08944 19.7915 2.3125 18.833 2.3125H3.22363C1.94713 2.3125 0.911133 3.34735 0.911133 4.625V34.6875C0.911133 35.9651 1.94713 37 3.22363 37H33.2861C34.5626 37 35.5986 35.9651 35.5986 34.6875V19.0781C35.5986 18.1208 34.8228 17.3438 33.8642 17.3438ZM37.5076 5.3777L32.5322 0.402345C32.2617 0.131797 31.9067 0 31.5517 0C31.1967 0 30.8418 0.131797 30.5712 0.403554L11.3173 19.6562V26.5938H18.2548L37.5075 7.34105C37.7792 7.0693 37.9111 6.71435 37.9111 6.35941C37.9111 6.00325 37.7793 5.64945 37.5076 5.3777ZM17.0986 23.125H14.7861V20.8125L31.5517 4.04691L33.8642 6.35941L17.0986 23.125Z" fill="#FBBA04"/>
</svg>
