<svg width="44" height="44" viewBox="0 0 44 44" fill="none" xmlns="http://www.w3.org/2000/svg">
<path d="M18.4516 0C16.6015 0 15.0281 1.18729 14.4419 2.83871H10.6452V5.16361C10.34 5.27858 10.0355 5.40632 9.73181 5.54471L8.08606 3.89897L1.06097 10.9241L2.70671 12.5698C2.56761 12.8743 2.43987 13.1787 2.3249 13.4839H0V23.4194H2.3249C2.43987 23.7245 2.56761 24.029 2.706 24.3327L1.06026 25.9785L8.08535 33.0043L9.7311 31.3585C10.0348 31.4969 10.3393 31.6246 10.6445 31.7396V34.0645H14.1928V39.7419C14.1928 42.0903 16.1026 44 18.4509 44H43.9993V42.5806H42.5785C41.8206 42.5806 41.1074 42.2854 40.5708 41.7489C40.0343 41.2124 39.7398 40.4992 39.7398 39.7405C39.7405 38.1764 41.0137 36.9032 42.5785 36.9032H44V36.1935V35.4839V0H18.4516ZM12.0645 32.6452V30.7269L11.5791 30.5651C11.0227 30.3792 10.4585 30.1443 9.90284 29.8661L9.44581 29.6375L8.08606 30.9973L3.06794 25.9792L4.42768 24.6194L4.19916 24.1617C3.92026 23.606 3.68535 23.0418 3.50013 22.4854L3.33761 22H1.41935V14.9032H3.33761L3.49942 14.4178C3.68535 13.8614 3.92026 13.2972 4.19845 12.7415L4.42697 12.2845L3.06723 10.9248L8.08535 5.90664L9.4451 7.26639L9.90213 7.03787C10.4578 6.75897 11.022 6.52406 11.5784 6.33884L12.0645 6.17632V4.25806H14.1935H15.6129H19.1613V6.17632L19.6467 6.33813C20.2031 6.52406 20.7673 6.75897 21.323 7.03716L21.7807 7.26568L23.1404 5.90593L28.1586 10.9241L26.7988 12.2838L27.0274 12.7408C27.3063 13.2965 27.5412 13.8607 27.7264 14.4171L27.8882 14.9032H29.8064V22H27.8882L27.7264 22.4854C27.5405 23.0418 27.3055 23.606 27.0274 24.1617L26.7988 24.6194L28.1586 25.9792L23.1404 30.9973L21.7807 29.6375L21.323 29.8661C20.7673 30.145 20.2031 30.3799 19.6467 30.5651L19.1613 30.7269V32.6452H12.0645ZM28.9009 13.4839C28.7859 13.1787 28.6582 12.8743 28.5198 12.5705L30.1655 10.9248L27.0472 7.80645H39.7419V19.871H31.2258V13.4839H28.9009ZM39.4048 42.5806H18.4516C16.8861 42.5806 15.6129 41.3075 15.6129 39.7419C15.6129 38.1764 16.8861 36.9032 18.4516 36.9032H39.4077C38.7328 37.6569 38.3219 38.6519 38.3212 39.7405C38.3204 40.7986 38.7037 41.7986 39.4048 42.5806ZM42.5806 35.4839H18.4516C17.3601 35.4839 16.3673 35.8997 15.6129 36.5775V34.0645H20.5806V31.7396C20.8858 31.6246 21.1903 31.4969 21.494 31.3585L23.1397 33.0043L30.1655 25.9785L28.5198 24.3327C28.6582 24.029 28.7859 23.7245 28.9009 23.4194H31.2258V21.2903H41.1613V6.3871H25.6279L23.1397 3.89897L21.494 5.54471C21.1903 5.40632 20.8858 5.27929 20.5806 5.16361V2.83871H16.0075C16.5 1.99419 17.4055 1.41935 18.4516 1.41935H42.5806V35.4839Z" fill="#FBBA04"/>
<path d="M19.5134 26.0139C20.0847 25.718 20.619 25.3617 21.1066 24.9487L22.137 25.9791L23.1405 24.9757L22.1101 23.9452C22.5224 23.4584 22.8787 22.924 23.1753 22.352L24.5208 22.9091L25.0645 21.5976L23.7239 21.0426C23.9162 20.4415 24.0397 19.8113 24.0936 19.1613H25.5485V17.7419H24.0929C24.039 17.0919 23.9155 16.461 23.7232 15.8606L25.0638 15.3056L24.5201 13.9941L23.1746 14.5512C22.8787 13.9799 22.5224 13.4455 22.1094 12.958L23.1398 11.9275L22.1363 10.924L21.1059 11.9545C20.619 11.5422 20.0847 11.1859 19.5127 10.8893L20.0698 9.54373L18.7583 9.00011L18.2033 10.3407C17.6022 10.1484 16.972 10.0249 16.3219 9.97095V8.51611H14.9026V9.97166C14.2525 10.0256 13.6216 10.1491 13.0212 10.3414L12.4663 9.00082L11.1548 9.54444L11.7119 10.89C11.1406 11.1859 10.6062 11.5422 10.1187 11.9552L9.0882 10.9248L8.08472 11.9282L9.11517 12.9587C8.70285 13.4455 8.34659 13.9799 8.04994 14.5519L6.70439 13.9948L6.16078 15.3063L7.50136 15.8613C7.30904 16.4624 7.18555 17.0926 7.13162 17.7426H5.67749V19.162H7.13304C7.18697 19.812 7.31046 20.443 7.50278 21.0433L6.1622 21.5983L6.70581 22.9098L8.05136 22.3527C8.3473 22.924 8.70356 23.4584 9.11659 23.9459L8.08614 24.9764L9.08962 25.9799L10.1201 24.9494C10.6069 25.3617 11.1413 25.718 11.7133 26.0146L11.1562 27.3602L12.4677 27.9038L13.0219 26.5618C13.623 26.7541 14.2532 26.8776 14.9033 26.9315V28.3871H16.3227V26.9315C16.9727 26.8776 17.6029 26.7541 18.204 26.5618L18.759 27.9031L20.0705 27.3595L19.5134 26.0139ZM15.613 25.5484C11.6998 25.5484 8.5162 22.3648 8.5162 18.4516C8.5162 14.5384 11.6998 11.3548 15.613 11.3548C19.5261 11.3548 22.7098 14.5384 22.7098 18.4516C22.7098 22.3648 19.5261 25.5484 15.613 25.5484Z" fill="#FBBA04"/>
<path d="M34.0645 39.0322H17.0322V40.4516H34.0645V39.0322Z" fill="#FBBA04"/>
<path d="M36.9032 39.0322H35.4839V40.4516H36.9032V39.0322Z" fill="#FBBA04"/>
</svg>
