<svg width="35" height="35" viewBox="0 0 35 35" fill="none" xmlns="http://www.w3.org/2000/svg">
<path d="M31.5818 18.8679C31.2038 18.8679 30.8989 19.1723 30.8989 19.5508C30.8989 19.9549 31.2452 20.2704 31.6502 20.2302C32.0001 20.1955 32.2647 19.9026 32.2647 19.5508C32.2647 19.1728 31.9604 18.8679 31.5818 18.8679Z" fill="white"/>
<path d="M17.4998 16.1335C17.1218 16.1335 16.8169 16.4379 16.8169 16.8165C16.8169 17.168 17.0814 17.4611 17.4314 17.4958C17.8368 17.5361 18.1827 17.2203 18.1827 16.8165C18.1827 16.4384 17.8784 16.1335 17.4998 16.1335Z" fill="white"/>
<path d="M17.5 13.3984C12.5998 13.3984 8.61328 17.385 8.61328 22.2852C8.61328 27.1853 12.5998 31.1719 17.5 31.1719C22.4002 31.1719 26.3867 27.1853 26.3867 22.2852C26.3867 17.385 22.4002 13.3984 17.5 13.3984ZM17.5 29.8047C13.3537 29.8047 9.98047 26.4314 9.98047 22.2852C9.98047 18.1389 13.3537 14.7656 17.5 14.7656C21.6463 14.7656 25.0195 18.1389 25.0195 22.2852C25.0195 26.4314 21.6463 29.8047 17.5 29.8047Z" fill="white"/>
<path d="M20.4785 16.903C20.1484 16.7197 19.7323 16.8387 19.549 17.1688C19.3657 17.4988 19.4847 17.915 19.8148 18.0983C21.3384 18.9443 22.2849 20.5487 22.2849 22.2851C22.2849 22.6627 22.591 22.9687 22.9685 22.9687C23.346 22.9687 23.6521 22.6627 23.6521 22.2851C23.6521 20.0523 22.4361 17.99 20.4785 16.903Z" fill="white"/>
<path d="M32.9492 11.6982V11.6982C32.5717 11.6982 32.2656 11.3922 32.2656 11.0146V9.64746C32.2656 9.26991 31.9595 8.96387 31.582 8.96387H28.8477C28.4702 8.96387 28.1641 9.26991 28.1641 9.64746V10.6982C28.1641 11.2505 27.7163 11.6982 27.1641 11.6982H23.2204C23.056 11.6982 22.8946 11.657 22.748 11.5827C22.3795 11.3959 22.0017 11.2292 21.6165 11.0832C21.206 10.9275 20.918 10.5439 20.918 10.1049V9.96387C20.918 9.41158 21.3657 8.96387 21.918 8.96387H22.9688C24.0996 8.96387 25.0195 8.04389 25.0195 6.91309V2.81152C25.0195 1.68072 24.0996 0.760742 22.9688 0.760742H12.0312C10.9004 0.760742 9.98047 1.68072 9.98047 2.81152V6.91309C9.98047 8.04389 10.9004 8.96387 12.0312 8.96387H13.082C13.6343 8.96387 14.082 9.41158 14.082 9.96387V10.1049C14.082 10.5439 13.794 10.9275 13.3835 11.0832C12.9983 11.2292 12.6205 11.396 12.2519 11.5827C12.1053 11.657 11.9442 11.6982 11.7799 11.6982C10.5416 11.6982 9.10122 11.6982 7.83571 11.6982C7.28342 11.6982 6.83594 11.2505 6.83594 10.6982V9.64746C6.83594 9.26991 6.52982 8.96387 6.15234 8.96387H3.41797C3.04049 8.96387 2.73438 9.26991 2.73438 9.64746V11.0146C2.73438 11.3922 2.42832 11.6982 2.05078 11.6982V11.6982C0.91998 11.6982 0 12.6182 0 13.749C0 14.4232 0 29.4277 0 30.1553C0 31.2861 0.91998 32.2061 2.05078 32.2061H11.7797C11.944 32.2061 12.1054 32.2473 12.252 32.3215C13.8703 33.1408 15.6751 33.5732 17.5 33.5732C19.3249 33.5732 21.1296 33.1409 22.748 32.3215C22.8946 32.2473 23.056 32.2061 23.2203 32.2061H32.9492C34.08 32.2061 35 31.2861 35 30.1553C35 29.4811 35 14.4766 35 13.749C35 12.6182 34.08 11.6982 32.9492 11.6982ZM29.5312 11.0146C29.5312 10.6371 29.8373 10.3311 30.2148 10.3311V10.3311C30.5924 10.3311 30.8984 10.6371 30.8984 11.0146V11.0146C30.8984 11.3922 30.5924 11.6982 30.2148 11.6982V11.6982C29.8373 11.6982 29.5312 11.3922 29.5312 11.0146V11.0146ZM12.0312 7.59668C11.6543 7.59668 11.3477 7.29002 11.3477 6.91309V2.81152C11.3477 2.43459 11.6543 2.12793 12.0312 2.12793H22.9688C23.3457 2.12793 23.6523 2.43459 23.6523 2.81152V6.91309C23.6523 7.29002 23.3457 7.59668 22.9688 7.59668H12.0312ZM18.8446 8.96387C19.2346 8.96387 19.5508 9.28003 19.5508 9.67003V9.67003C19.5508 10.1096 19.1534 10.4409 18.7163 10.395C18.3133 10.3526 17.9072 10.3311 17.5 10.3311C17.0927 10.3311 16.6867 10.3526 16.2837 10.395C15.8466 10.4409 15.4492 10.1095 15.4492 9.67004V9.67004C15.4492 9.28003 15.7654 8.96387 16.1554 8.96387H18.8446ZM4.10156 11.0146C4.10156 10.6371 4.40762 10.3311 4.78516 10.3311V10.3311C5.16269 10.3311 5.46875 10.6371 5.46875 11.0146V11.0146C5.46875 11.3922 5.16269 11.6982 4.78516 11.6982V11.6982C4.40762 11.6982 4.10156 11.3922 4.10156 11.0146V11.0146ZM1.36719 13.749C1.36719 13.3721 1.67385 13.0586 2.05078 13.0586H7.27525C8.20769 13.0586 8.70006 14.3024 8.14693 15.0531C8.07802 15.1466 8.01047 15.2412 7.94431 15.3368C7.74805 15.6203 7.43015 15.7998 7.08532 15.7998H2.36719C1.8149 15.7998 1.36719 15.3521 1.36719 14.7998V13.749ZM1.36719 18.1602C1.36719 17.6079 1.8149 17.1602 2.36719 17.1602H5.35888C6.08513 17.1602 6.57468 17.9144 6.36697 18.6103C6.04496 19.6892 5.87891 20.817 5.87891 21.9521C5.87891 23.0868 6.04481 24.2109 6.36652 25.2872C6.5745 25.9831 6.08511 26.7373 5.35885 26.7373H2.36719C1.8149 26.7373 1.36719 26.2896 1.36719 25.7373V18.1602ZM2.05078 30.8389C1.67385 30.8389 1.36719 30.5322 1.36719 30.1553V29.1045C1.36719 28.5522 1.8149 28.1045 2.36719 28.1045H7.08533C7.43015 28.1045 7.74801 28.284 7.94451 28.5674C8.00979 28.6615 8.07642 28.7546 8.14437 28.8467C8.69816 29.5968 8.20766 30.8389 7.27522 30.8389H2.05078ZM17.5 32.2061C11.8327 32.2061 7.24609 27.6107 7.24609 21.9521C7.24609 16.3149 11.8117 11.6982 17.5 11.6982C23.1634 11.6982 27.7539 16.2901 27.7539 21.9521C27.7539 27.6319 23.1466 32.2061 17.5 32.2061ZM33.6328 30.1553C33.6328 30.5322 33.3262 30.8389 32.9492 30.8389H27.7248C26.7923 30.8389 26.3018 29.5969 26.8556 28.8467C26.9236 28.7546 26.9902 28.6615 27.0555 28.5674C27.252 28.284 27.5699 28.1045 27.9147 28.1045H32.6328C33.1851 28.1045 33.6328 28.5522 33.6328 29.1045V30.1553ZM33.6328 25.7373C33.6328 26.2896 33.1851 26.7373 32.6328 26.7373H29.6411C28.9149 26.7373 28.4255 25.9831 28.6335 25.2873C28.9552 24.2109 29.1211 23.0868 29.1211 21.9521C29.1211 20.8175 28.9552 19.6934 28.6335 18.617C28.4255 17.9212 28.9149 17.167 29.6411 17.167H32.6328C33.1851 17.167 33.6328 17.6147 33.6328 18.167V25.7373ZM33.6328 14.7998C33.6328 15.3521 33.1851 15.7998 32.6328 15.7998H27.9147C27.5699 15.7998 27.252 15.6203 27.0555 15.3369C26.9902 15.2428 26.9237 15.1497 26.8557 15.0577C26.302 14.3075 26.7925 13.0654 27.7249 13.0654H32.9492C33.3262 13.0654 33.6328 13.3721 33.6328 13.749V14.7998Z" fill="white"/>
<path d="M21.6016 3.82812C21.2241 3.82812 20.918 4.13417 20.918 4.51172V5.87891C20.918 6.25646 21.2241 6.5625 21.6016 6.5625C21.979 6.5625 22.2852 6.25646 22.2852 5.87891V4.51172C22.2852 4.13417 21.979 3.82812 21.6016 3.82812Z" fill="white"/>
</svg>
