<svg width="32" height="32" viewBox="0 0 32 32" fill="none" xmlns="http://www.w3.org/2000/svg">
<path d="M28.8749 17.2506C28.5292 17.2506 28.2505 17.5289 28.2505 17.875C28.2505 18.2444 28.5671 18.5329 28.9374 18.4961C29.2572 18.4644 29.4992 18.1966 29.4992 17.875C29.4992 17.5294 29.221 17.2506 28.8749 17.2506Z" fill="white"/>
<path d="M15.9999 14.7506C15.6542 14.7506 15.3755 15.0289 15.3755 15.375C15.3755 15.6964 15.6173 15.9644 15.9374 15.9961C16.3079 16.0329 16.6242 15.7442 16.6242 15.375C16.6242 15.0294 16.346 14.7506 15.9999 14.7506Z" fill="white"/>
<path d="M16 12.25C11.5198 12.25 7.875 15.8949 7.875 20.375C7.875 24.8551 11.5198 28.5 16 28.5C20.4802 28.5 24.125 24.8551 24.125 20.375C24.125 15.8949 20.4802 12.25 16 12.25ZM16 27.25C12.2091 27.25 9.125 24.1659 9.125 20.375C9.125 16.5841 12.2091 13.5 16 13.5C19.7909 13.5 22.875 16.5841 22.875 20.375C22.875 24.1659 19.7909 27.25 16 27.25Z" fill="white"/>
<path d="M18.7235 15.4542C18.4216 15.2866 18.0412 15.3955 17.8736 15.6972C17.706 15.999 17.8149 16.3795 18.1166 16.547C19.5097 17.3206 20.3751 18.7874 20.3751 20.375C20.3751 20.7202 20.6549 21 21.0001 21C21.3452 21 21.6251 20.7202 21.6251 20.375C21.6251 18.3336 20.5133 16.448 18.7235 15.4542Z" fill="white"/>
<path d="M30.125 10.6957C29.7798 10.6957 29.5 10.4159 29.5 10.0707V8.82068C29.5 8.47549 29.2201 8.19568 28.875 8.19568H26.375C26.0299 8.19568 25.75 8.47549 25.75 8.82068V9.69568C25.75 10.248 25.3023 10.6957 24.75 10.6957H21.2515C21.0872 10.6957 20.9258 10.6544 20.779 10.5804C20.4645 10.4218 20.1427 10.2791 19.8149 10.1529C19.4099 9.99692 19.125 9.61809 19.125 9.18413C19.125 8.63822 19.5675 8.19568 20.1134 8.19568H21C22.0339 8.19568 22.875 7.35455 22.875 6.32068V2.57068C22.875 1.5368 22.0339 0.695679 21 0.695679H11C9.96613 0.695679 9.125 1.5368 9.125 2.57068V6.32068C9.125 7.35455 9.96613 8.19568 11 8.19568H11.8866C12.4325 8.19568 12.875 8.63822 12.875 9.18413C12.875 9.61809 12.5901 9.99692 12.1851 10.1529C11.8573 10.2791 11.5355 10.4218 11.2209 10.5804C11.0742 10.6544 10.913 10.6957 10.7486 10.6957C9.64931 10.6957 8.37853 10.6957 7.2499 10.6957C6.69761 10.6957 6.25 10.248 6.25 9.69568V8.82068C6.25 8.47549 5.97013 8.19568 5.625 8.19568H3.125C2.77988 8.19568 2.5 8.47549 2.5 8.82068V10.0707C2.5 10.4159 2.22018 10.6957 1.875 10.6957C0.841125 10.6957 0 11.5368 0 12.5707C0 13.1871 0 26.9055 0 27.5707C0 28.6046 0.841125 29.4457 1.875 29.4457H10.7486C10.9129 29.4457 11.0742 29.487 11.221 29.5609C12.6957 30.3037 14.3387 30.6957 16 30.6957C17.6613 30.6957 19.3043 30.3038 20.779 29.5609C20.9258 29.487 21.0871 29.4457 21.2514 29.4457H30.125C31.1589 29.4457 32 28.6046 32 27.5707C32 26.9543 32 13.2359 32 12.5707C32 11.5368 31.1589 10.6957 30.125 10.6957ZM27 10.0707C27 9.7255 27.2798 9.44568 27.625 9.44568C27.9702 9.44568 28.25 9.7255 28.25 10.0707C28.25 10.4159 27.9702 10.6957 27.625 10.6957C27.2798 10.6957 27 10.4159 27 10.0707ZM11 6.94568C10.6554 6.94568 10.375 6.6653 10.375 6.32068V2.57068C10.375 2.22605 10.6554 1.94568 11 1.94568H21C21.3446 1.94568 21.625 2.22605 21.625 2.57068V6.32068C21.625 6.6653 21.3446 6.94568 21 6.94568H11ZM17.2294 8.19568C17.5859 8.19568 17.875 8.48474 17.875 8.84132C17.875 9.24317 17.5117 9.54614 17.112 9.50413C16.7436 9.4654 16.3723 9.44568 16 9.44568C15.6276 9.44568 15.2564 9.4654 14.8879 9.50412C14.4883 9.54612 14.125 9.24316 14.125 8.84132C14.125 8.48474 14.4141 8.19568 14.7706 8.19568H17.2294ZM3.75 10.0707C3.75 9.7255 4.02982 9.44568 4.375 9.44568C4.72018 9.44568 5 9.7255 5 10.0707C5 10.4159 4.72018 10.6957 4.375 10.6957C4.02982 10.6957 3.75 10.4159 3.75 10.0707ZM1.25 12.5707C1.25 12.2261 1.53038 11.9394 1.875 11.9394H6.41702C7.34946 11.9394 7.84816 13.1909 7.3115 13.9534C7.30448 13.9634 7.29748 13.9733 7.2905 13.9833C7.09299 14.266 6.77532 14.4457 6.4305 14.4457H2.25C1.69771 14.4457 1.25 13.998 1.25 13.4457V12.5707ZM1.25 16.6894C1.25 16.1371 1.69772 15.6894 2.25 15.6894H4.76679C5.49303 15.6894 5.98307 16.4443 5.78405 17.1428C5.51405 18.0903 5.375 19.0774 5.375 20.0707C5.375 21.0634 5.51389 22.0473 5.78359 22.9925C5.98286 23.6909 5.49301 24.4457 4.76676 24.4457H2.25C1.69772 24.4457 1.25 23.998 1.25 23.4457V16.6894ZM1.875 28.1957C1.53038 28.1957 1.25 27.9153 1.25 27.5707V26.6957C1.25 26.1434 1.69772 25.6957 2.25 25.6957H6.43051C6.77533 25.6957 7.09696 25.8815 7.29492 26.1639C7.83023 26.9273 7.34943 28.1957 6.41699 28.1957H1.875ZM16 29.4457C10.8185 29.4457 6.625 25.2442 6.625 20.0707C6.625 14.9166 10.7993 10.6957 16 10.6957C21.1779 10.6957 25.375 14.8939 25.375 20.0707C25.375 25.2636 21.1626 29.4457 16 29.4457ZM30.75 27.5707C30.75 27.9153 30.4696 28.1957 30.125 28.1957H25.583C24.6505 28.1957 24.1698 26.9273 24.7051 26.1639C24.9031 25.8815 25.2247 25.6957 25.5695 25.6957H29.75C30.3023 25.6957 30.75 26.1434 30.75 26.6957V27.5707ZM30.75 23.4457C30.75 23.998 30.3023 24.4457 29.75 24.4457H27.2332C26.507 24.4457 26.0171 23.6909 26.2164 22.9925C26.4861 22.0472 26.625 21.0634 26.625 20.0707C26.625 19.078 26.4861 18.0941 26.2164 17.1489C26.0171 16.4505 26.507 15.6957 27.2332 15.6957H29.75C30.3023 15.6957 30.75 16.1434 30.75 16.6957V23.4457ZM30.75 13.4457C30.75 13.998 30.3023 14.4457 29.75 14.4457H25.5695C25.2247 14.4457 24.9031 14.2598 24.7051 13.9775C24.1698 13.214 24.6507 11.9457 25.5832 11.9457H30.125C30.4696 11.9457 30.75 12.2261 30.75 12.5707V13.4457Z" fill="white"/>
<path d="M19.75 3.5C19.4049 3.5 19.125 3.77981 19.125 4.125V5.375C19.125 5.72019 19.4049 6 19.75 6C20.0951 6 20.375 5.72019 20.375 5.375V4.125C20.375 3.77981 20.0951 3.5 19.75 3.5Z" fill="white"/>
</svg>
