<svg width="35" height="31" viewBox="0 0 35 31" fill="none" xmlns="http://www.w3.org/2000/svg">
<path d="M24.4103 1.03313L24.8189 1.32132L25.3748 0.533127H24.4103V1.03313ZM20.6389 6.37993L21.0473 6.66844L21.0475 6.66813L20.6389 6.37993ZM11.5635 19.2309L11.9715 19.5199L11.972 19.5192L11.5635 19.2309ZM6.16864 26.8181L6.5796 27.1029L6.57973 27.1028L6.16864 26.8181ZM4.87792 27.1263L4.66185 27.5772L4.66458 27.5785L4.87792 27.1263ZM1.41413 25.2381L1.67618 24.8121L1.66568 24.806L1.41413 25.2381ZM1.23766 24.1863L0.830832 23.8956L0.830798 23.8957L1.23766 24.1863ZM16.6659 2.40284L17.0765 2.68824L17.0765 2.68816L16.6659 2.40284ZM19.439 1.00867L19.4727 0.509782L19.468 0.509511L19.439 1.00867ZM7.22241 28.0509L6.81437 27.7619L6.46705 28.2523L7.01246 28.5047L7.22241 28.0509ZM14.7853 17.3719L15.1933 17.6609L15.1933 17.6609L14.7853 17.3719ZM21.2087 8.2633L21.6195 8.5483L21.6361 8.52431L21.6499 8.49855L21.2087 8.2633ZM22.5498 7.53441L22.5148 8.03318L22.5259 8.03396L22.5369 8.03424L22.5498 7.53441ZM27.3245 7.53441L27.7344 7.82073L28.2837 7.03441H27.3245V7.53441ZM24.0977 12.1572L23.6899 11.8679L23.6895 11.8685L24.0977 12.1572ZM12.6778 28.271L12.2682 27.9841L12.268 27.9845L12.6778 28.271ZM29.8908 13.1992L30.2997 13.4869L30.8541 12.6992H29.8908V13.1992ZM18.7633 28.9901L18.3525 28.7051L18.3352 28.7301L18.321 28.757L18.7633 28.9901ZM16.7113 29.9685L16.8004 29.4763L16.7879 29.4744L16.7113 29.9685ZM14.629 29.7924L14.6365 29.2924H14.629V29.7924ZM14.1248 28.8825L13.7187 28.5908L13.7156 28.5951L14.1248 28.8825ZM18.8642 22.2247L18.4568 21.9348L18.4566 21.9351L18.8642 22.2247ZM24.6069 14.1189L25.0188 14.4024L25.0342 14.3799L25.0472 14.3559L24.6069 14.1189ZM26.3968 13.1943L26.343 13.6914L26.3622 13.6935L26.3814 13.6941L26.3968 13.1943ZM32.1446 18.0128L32.5531 18.301L33.1093 17.5128H32.1446V18.0128ZM27.4556 24.651L27.0481 24.3614L27.0473 24.3625L27.4556 24.651ZM24.9044 28.2417L24.4837 27.9715L24.4717 27.9901L24.4615 28.0097L24.9044 28.2417ZM23.0036 29.4402L22.9784 28.9408L22.9708 28.9413L23.0036 29.4402ZM20.0894 29.8364L19.6766 29.5543L19.0361 30.4913L20.1598 30.3314L20.0894 29.8364ZM22.6809 26.0599L22.2725 25.7715L22.2724 25.7716L22.6809 26.0599ZM27.7632 18.8835L28.1758 19.1659L28.192 19.1422L28.2054 19.1169L27.7632 18.8835ZM29.4371 18.003L29.3867 18.5005L29.395 18.5013L29.4034 18.5019L29.4371 18.003ZM26.8102 28.271L26.4033 27.9806L25.77 28.8678L26.8556 28.769L26.8102 28.271ZM30.8438 22.6209L31.2506 22.9116L31.2523 22.9092L30.8438 22.6209ZM32.0589 22.2345L32.0535 22.7345H32.0589V22.2345ZM34 22.2345L34.4173 22.5099L34.9291 21.7345H34V22.2345ZM24.0017 0.744932L20.2303 6.09174L21.0475 6.66813L24.8189 1.32132L24.0017 0.744932ZM20.2306 6.09143C17.2054 10.3735 14.1802 14.6572 11.155 18.9425L11.972 19.5192C14.9971 15.234 18.0222 10.9504 21.0473 6.66844L20.2306 6.09143ZM11.1555 18.9419C9.3678 21.4656 7.52324 23.9834 5.75756 26.5335L6.57973 27.1028C8.34338 24.5556 10.1694 22.0641 11.9715 19.5199L11.1555 18.9419ZM5.75769 26.5333C5.59493 26.7682 5.50835 26.7873 5.48947 26.7909C5.44908 26.7985 5.34882 26.7956 5.09125 26.6741L4.66458 27.5785C4.95658 27.7163 5.30505 27.8431 5.67431 27.7736C6.06509 27.7001 6.34909 27.4356 6.5796 27.1029L5.75769 26.5333ZM5.09398 26.6754C3.9214 26.1135 2.7805 25.4916 1.67611 24.8122L1.15215 25.6639C2.28633 26.3616 3.45788 27.0003 4.66185 27.5772L5.09398 26.6754ZM1.66568 24.806C1.56181 24.7455 1.51289 24.7034 1.49245 24.6812C1.47726 24.6646 1.49332 24.6766 1.4987 24.7117C1.5034 24.7423 1.49275 24.746 1.5099 24.7029C1.52826 24.6569 1.5675 24.5848 1.64452 24.4769L0.830798 23.8957C0.649894 24.1489 0.452332 24.4853 0.510241 24.8632C0.572066 25.2665 0.886277 25.5093 1.16257 25.6702L1.66568 24.806ZM1.64448 24.477C6.81703 17.2377 11.9971 9.99495 17.0765 2.68824L16.2554 2.11744C11.1804 9.41784 6.00428 16.655 0.830832 23.8956L1.64448 24.477ZM17.0765 2.68816C17.424 2.18811 17.7443 1.89173 18.0864 1.71936C18.4262 1.54821 18.8368 1.47446 19.4099 1.50782L19.468 0.509511C18.7806 0.469495 18.1804 0.552285 17.6365 0.826292C17.095 1.09908 16.6591 1.53648 16.2553 2.11752L17.0765 2.68816ZM19.4053 1.50753C21.0202 1.61661 22.6757 1.53313 24.4103 1.53313V0.533127C22.6054 0.533127 21.0442 0.615961 19.4727 0.509803L19.4053 1.50753ZM7.63045 28.3399L15.1933 17.6609L14.3772 17.083L6.81437 27.7619L7.63045 28.3399ZM15.1933 17.6609C17.3397 14.63 19.5001 11.6035 21.6195 8.5483L20.7978 7.9783C18.6821 11.0282 16.5265 14.048 14.3772 17.083L15.1933 17.6609ZM21.6499 8.49855C21.7286 8.35097 21.8514 8.22667 22.0053 8.14303L21.5278 7.2644C21.205 7.43988 20.9399 7.7047 20.7675 8.02805L21.6499 8.49855ZM22.0053 8.14303C22.1594 8.0593 22.3367 8.02069 22.5148 8.03318L22.5848 7.03563C22.2179 7.0099 21.8505 7.08901 21.5278 7.2644L22.0053 8.14303ZM22.5369 8.03424C24.0571 8.07357 25.6281 8.03441 27.3245 8.03441V7.03441C25.5924 7.03441 24.0677 7.07351 22.5628 7.03458L22.5369 8.03424ZM26.9146 7.24809C25.7767 8.87714 24.7476 10.3775 23.6899 11.8679L24.5054 12.4466C25.5654 10.9529 26.6034 9.43988 27.7344 7.82073L26.9146 7.24809ZM23.6895 11.8685C19.8861 17.2449 16.045 22.5928 12.2682 27.9841L13.0873 28.5579C16.8633 23.1676 20.696 17.8316 24.5059 12.446L23.6895 11.8685ZM12.268 27.9845C11.9822 28.3932 11.7715 28.6047 11.5651 28.7003C11.3892 28.7818 11.1395 28.8126 10.6835 28.6436L10.3359 29.5812C10.9489 29.8085 11.4908 29.8368 11.9854 29.6077C12.4496 29.3927 12.7884 28.9854 13.0875 28.5575L12.268 27.9845ZM10.6835 28.6436C10.1233 28.4359 9.54445 28.2889 9.00706 28.1401C8.45911 27.9884 7.93767 27.8309 7.43236 27.5971L7.01246 28.5047C7.5962 28.7748 8.18398 28.9499 8.7402 29.1039C9.30699 29.2608 9.82723 29.3927 10.3359 29.5812L10.6835 28.6436ZM29.4819 12.9115C25.6992 18.2872 21.9886 23.4647 18.3525 28.7051L19.1741 29.2752C22.8085 24.0372 26.5096 18.8732 30.2997 13.4869L29.4819 12.9115ZM18.321 28.757C18.1846 29.0158 17.9641 29.2278 17.6896 29.3586L18.1199 30.2613C18.5851 30.0395 18.9668 29.6764 19.2057 29.2233L18.321 28.757ZM17.6896 29.3586C17.4149 29.4896 17.1028 29.5313 16.8004 29.4765L16.6221 30.4605C17.1299 30.5525 17.655 30.483 18.1199 30.2613L17.6896 29.3586ZM16.7879 29.4744C16.0761 29.364 15.3571 29.3032 14.6364 29.2924L14.6215 30.2923C15.2959 30.3024 15.9687 30.3593 16.6347 30.4626L16.7879 29.4744ZM14.629 29.2924C14.5311 29.2924 14.4507 29.2889 14.3852 29.2826C14.3191 29.2763 14.275 29.2679 14.2478 29.2605C14.2195 29.2529 14.2212 29.2495 14.2377 29.2603C14.2575 29.2732 14.2929 29.3031 14.3199 29.3553C14.3469 29.4075 14.351 29.4541 14.3502 29.4788C14.3494 29.4996 14.3454 29.5006 14.3547 29.4754C14.3636 29.4511 14.3807 29.4133 14.4115 29.3595C14.4418 29.3065 14.4821 29.2437 14.5339 29.1699L13.7156 28.5951C13.5914 28.772 13.4809 28.9536 13.4158 29.1312C13.3526 29.3035 13.3004 29.561 13.4318 29.8149C13.5631 30.0686 13.804 30.1763 13.9862 30.2257C14.1741 30.2766 14.3954 30.2924 14.629 30.2924V29.2924ZM14.5309 29.1742C16.1201 26.9617 17.6946 24.7338 19.2718 22.5143L18.4566 21.9351C16.8775 24.1574 15.3059 26.3811 13.7187 28.5908L14.5309 29.1742ZM19.2716 22.5145C21.1888 19.8195 23.1403 17.1313 25.0188 14.4024L24.1951 13.8354C22.3224 16.5559 20.3815 19.2293 18.4568 21.9348L19.2716 22.5145ZM25.0472 14.3559C25.1661 14.135 25.3524 13.9517 25.5839 13.8321L25.1249 12.9436C24.7176 13.154 24.3828 13.4803 24.1666 13.8819L25.0472 14.3559ZM25.5839 13.8321C25.8155 13.7124 26.0803 13.663 26.343 13.6914L26.4506 12.6972C25.994 12.6478 25.5321 12.7333 25.1249 12.9436L25.5839 13.8321ZM26.3814 13.6941C27.5053 13.7286 28.6432 13.6992 29.8908 13.6992V12.6992C28.6074 12.6992 27.5168 12.7285 26.4121 12.6945L26.3814 13.6941ZM31.736 17.7245C30.0614 20.0981 28.56 22.2344 27.0481 24.3614L27.8631 24.9407C29.3764 22.8118 30.8799 20.6726 32.5531 18.301L31.736 17.7245ZM27.0473 24.3625C26.2221 25.53 25.2815 26.7291 24.4837 27.9715L25.3251 28.5118C26.1105 27.2888 26.995 26.1691 27.8639 24.9396L27.0473 24.3625ZM24.4615 28.0097C24.3227 28.2746 24.1134 28.5013 23.8531 28.6655L24.3864 29.5113C24.7935 29.2547 25.1255 28.8972 25.3473 28.4736L24.4615 28.0097ZM23.8531 28.6655C23.5926 28.8297 23.2909 28.9251 22.9784 28.9408L23.0288 29.9395C23.5112 29.9152 23.9794 29.768 24.3864 29.5113L23.8531 28.6655ZM22.9708 28.9413C22.0537 29.0016 21.1171 29.1851 20.0189 29.3414L20.1598 30.3314C21.3305 30.1648 22.1686 29.9962 23.0364 29.9391L22.9708 28.9413ZM20.5022 30.1186C21.4585 28.7194 22.2604 27.5231 23.0894 26.3482L22.2724 25.7716C21.4376 26.9546 20.6261 28.1651 19.6766 29.5543L20.5022 30.1186ZM23.0893 26.3483C24.7703 23.9677 26.5201 21.5853 28.1758 19.1659L27.3505 18.6012C25.6987 21.015 23.9696 23.3679 22.2725 25.7715L23.0893 26.3483ZM28.2054 19.1169C28.3123 18.9142 28.4812 18.7452 28.6923 18.6342L28.2268 17.7492C27.8403 17.9525 27.5237 18.2658 27.3209 18.6502L28.2054 19.1169ZM28.6923 18.6342C28.9035 18.5231 29.1457 18.476 29.3867 18.5005L29.4875 17.5055C29.0524 17.4615 28.613 17.546 28.2268 17.7492L28.6923 18.6342ZM29.4034 18.5019C30.2215 18.5571 31.0718 18.5128 32.1446 18.5128V17.5128C30.9989 17.5128 30.2459 17.5565 29.4708 17.5041L29.4034 18.5019ZM27.2172 28.5615C28.6139 26.6047 29.9297 24.7606 31.2506 22.9116L30.4369 22.3303C29.1158 24.1795 27.7998 26.0239 26.4033 27.9806L27.2172 28.5615ZM31.2523 22.9092C31.3282 22.8017 31.3999 22.7668 31.4972 22.7476C31.6381 22.7198 31.7812 22.7315 32.0535 22.7344L32.0642 21.7345C31.7074 21.7306 30.935 21.6245 30.4353 22.3326L31.2523 22.9092ZM32.0589 22.7345C32.06 22.7345 32.0611 22.7345 32.0623 22.7345C32.0634 22.7345 32.0646 22.7345 32.0657 22.7345C32.0669 22.7345 32.068 22.7345 32.0691 22.7345C32.0703 22.7345 32.0714 22.7345 32.0726 22.7345C32.0737 22.7345 32.0749 22.7345 32.076 22.7345C32.0771 22.7345 32.0783 22.7345 32.0794 22.7345C32.0806 22.7345 32.0817 22.7345 32.0828 22.7345C32.084 22.7345 32.0851 22.7345 32.0863 22.7345C32.0874 22.7345 32.0886 22.7345 32.0897 22.7345C32.0908 22.7345 32.092 22.7345 32.0931 22.7345C32.0943 22.7345 32.0954 22.7345 32.0965 22.7345C32.0977 22.7345 32.0988 22.7345 32.1 22.7345C32.1011 22.7345 32.1023 22.7345 32.1034 22.7345C32.1045 22.7345 32.1057 22.7345 32.1068 22.7345C32.108 22.7345 32.1091 22.7345 32.1103 22.7345C32.1114 22.7345 32.1125 22.7345 32.1137 22.7345C32.1148 22.7345 32.116 22.7345 32.1171 22.7345C32.1182 22.7345 32.1194 22.7345 32.1205 22.7345C32.1217 22.7345 32.1228 22.7345 32.124 22.7345C32.1251 22.7345 32.1262 22.7345 32.1274 22.7345C32.1285 22.7345 32.1297 22.7345 32.1308 22.7345C32.132 22.7345 32.1331 22.7345 32.1342 22.7345C32.1354 22.7345 32.1365 22.7345 32.1377 22.7345C32.1388 22.7345 32.14 22.7345 32.1411 22.7345C32.1422 22.7345 32.1434 22.7345 32.1445 22.7345C32.1457 22.7345 32.1468 22.7345 32.1479 22.7345C32.1491 22.7345 32.1502 22.7345 32.1514 22.7345C32.1525 22.7345 32.1537 22.7345 32.1548 22.7345C32.1559 22.7345 32.1571 22.7345 32.1582 22.7345C32.1594 22.7345 32.1605 22.7345 32.1617 22.7345C32.1628 22.7345 32.1639 22.7345 32.1651 22.7345C32.1662 22.7345 32.1674 22.7345 32.1685 22.7345C32.1697 22.7345 32.1708 22.7345 32.1719 22.7345C32.1731 22.7345 32.1742 22.7345 32.1754 22.7345C32.1765 22.7345 32.1777 22.7345 32.1788 22.7345C32.1799 22.7345 32.1811 22.7345 32.1822 22.7345C32.1834 22.7345 32.1845 22.7345 32.1857 22.7345C32.1868 22.7345 32.1879 22.7345 32.1891 22.7345C32.1902 22.7345 32.1914 22.7345 32.1925 22.7345C32.1937 22.7345 32.1948 22.7345 32.1959 22.7345C32.1971 22.7345 32.1982 22.7345 32.1994 22.7345C32.2005 22.7345 32.2017 22.7345 32.2028 22.7345C32.2039 22.7345 32.2051 22.7345 32.2062 22.7345C32.2074 22.7345 32.2085 22.7345 32.2097 22.7345C32.2108 22.7345 32.2119 22.7345 32.2131 22.7345C32.2142 22.7345 32.2154 22.7345 32.2165 22.7345C32.2177 22.7345 32.2188 22.7345 32.22 22.7345C32.2211 22.7345 32.2222 22.7345 32.2234 22.7345C32.2245 22.7345 32.2257 22.7345 32.2268 22.7345C32.228 22.7345 32.2291 22.7345 32.2302 22.7345C32.2314 22.7345 32.2325 22.7345 32.2337 22.7345C32.2348 22.7345 32.236 22.7345 32.2371 22.7345C32.2383 22.7345 32.2394 22.7345 32.2405 22.7345C32.2417 22.7345 32.2428 22.7345 32.244 22.7345C32.2451 22.7345 32.2463 22.7345 32.2474 22.7345C32.2486 22.7345 32.2497 22.7345 32.2509 22.7345C32.252 22.7345 32.2531 22.7345 32.2543 22.7345C32.2554 22.7345 32.2566 22.7345 32.2577 22.7345C32.2589 22.7345 32.26 22.7345 32.2612 22.7345C32.2623 22.7345 32.2634 22.7345 32.2646 22.7345C32.2657 22.7345 32.2669 22.7345 32.268 22.7345C32.2692 22.7345 32.2703 22.7345 32.2715 22.7345C32.2726 22.7345 32.2738 22.7345 32.2749 22.7345C32.276 22.7345 32.2772 22.7345 32.2783 22.7345C32.2795 22.7345 32.2806 22.7345 32.2818 22.7345C32.2829 22.7345 32.2841 22.7345 32.2852 22.7345C32.2864 22.7345 32.2875 22.7345 32.2887 22.7345C32.2898 22.7345 32.2909 22.7345 32.2921 22.7345C32.2932 22.7345 32.2944 22.7345 32.2955 22.7345C32.2967 22.7345 32.2978 22.7345 32.299 22.7345C32.3001 22.7345 32.3013 22.7345 32.3024 22.7345C32.3036 22.7345 32.3047 22.7345 32.3059 22.7345C32.307 22.7345 32.3082 22.7345 32.3093 22.7345C32.3104 22.7345 32.3116 22.7345 32.3127 22.7345C32.3139 22.7345 32.315 22.7345 32.3162 22.7345C32.3173 22.7345 32.3185 22.7345 32.3196 22.7345C32.3208 22.7345 32.3219 22.7345 32.3231 22.7345C32.3242 22.7345 32.3254 22.7345 32.3265 22.7345C32.3277 22.7345 32.3288 22.7345 32.33 22.7345C32.3311 22.7345 32.3323 22.7345 32.3334 22.7345C32.3346 22.7345 32.3357 22.7345 32.3369 22.7345C32.338 22.7345 32.3392 22.7345 32.3403 22.7345C32.3415 22.7345 32.3426 22.7345 32.3438 22.7345C32.3449 22.7345 32.3461 22.7345 32.3472 22.7345C32.3484 22.7345 32.3495 22.7345 32.3507 22.7345C32.3518 22.7345 32.353 22.7345 32.3541 22.7345C32.3553 22.7345 32.3564 22.7345 32.3576 22.7345C32.3587 22.7345 32.3599 22.7345 32.361 22.7345C32.3622 22.7345 32.3633 22.7345 32.3645 22.7345C32.3656 22.7345 32.3668 22.7345 32.3679 22.7345C32.3691 22.7345 32.3702 22.7345 32.3714 22.7345C32.3725 22.7345 32.3737 22.7345 32.3748 22.7345C32.376 22.7345 32.3771 22.7345 32.3783 22.7345C32.3794 22.7345 32.3806 22.7345 32.3817 22.7345C32.3829 22.7345 32.384 22.7345 32.3852 22.7345C32.3863 22.7345 32.3875 22.7345 32.3886 22.7345C32.3898 22.7345 32.3909 22.7345 32.3921 22.7345C32.3933 22.7345 32.3944 22.7345 32.3956 22.7345C32.3967 22.7345 32.3979 22.7345 32.399 22.7345C32.4002 22.7345 32.4013 22.7345 32.4025 22.7345C32.4036 22.7345 32.4048 22.7345 32.4059 22.7345C32.4071 22.7345 32.4082 22.7345 32.4094 22.7345C32.4106 22.7345 32.4117 22.7345 32.4129 22.7345C32.414 22.7345 32.4152 22.7345 32.4163 22.7345C32.4175 22.7345 32.4186 22.7345 32.4198 22.7345C32.4209 22.7345 32.4221 22.7345 32.4233 22.7345C32.4244 22.7345 32.4256 22.7345 32.4267 22.7345C32.4279 22.7345 32.429 22.7345 32.4302 22.7345C32.4313 22.7345 32.4325 22.7345 32.4337 22.7345C32.4348 22.7345 32.436 22.7345 32.4371 22.7345C32.4383 22.7345 32.4394 22.7345 32.4406 22.7345C32.4417 22.7345 32.4429 22.7345 32.4441 22.7345C32.4452 22.7345 32.4464 22.7345 32.4475 22.7345C32.4487 22.7345 32.4498 22.7345 32.451 22.7345C32.4522 22.7345 32.4533 22.7345 32.4545 22.7345C32.4556 22.7345 32.4568 22.7345 32.458 22.7345C32.4591 22.7345 32.4603 22.7345 32.4614 22.7345C32.4626 22.7345 32.4637 22.7345 32.4649 22.7345C32.4661 22.7345 32.4672 22.7345 32.4684 22.7345C32.4695 22.7345 32.4707 22.7345 32.4719 22.7345C32.473 22.7345 32.4742 22.7345 32.4753 22.7345C32.4765 22.7345 32.4777 22.7345 32.4788 22.7345C32.48 22.7345 32.4811 22.7345 32.4823 22.7345C32.4835 22.7345 32.4846 22.7345 32.4858 22.7345C32.4869 22.7345 32.4881 22.7345 32.4893 22.7345C32.4904 22.7345 32.4916 22.7345 32.4927 22.7345C32.4939 22.7345 32.4951 22.7345 32.4962 22.7345C32.4974 22.7345 32.4986 22.7345 32.4997 22.7345C32.5009 22.7345 32.502 22.7345 32.5032 22.7345C32.5044 22.7345 32.5055 22.7345 32.5067 22.7345C32.5078 22.7345 32.509 22.7345 32.5102 22.7345C32.5113 22.7345 32.5125 22.7345 32.5137 22.7345C32.5148 22.7345 32.516 22.7345 32.5172 22.7345C32.5183 22.7345 32.5195 22.7345 32.5206 22.7345C32.5218 22.7345 32.523 22.7345 32.5241 22.7345C32.5253 22.7345 32.5265 22.7345 32.5276 22.7345C32.5288 22.7345 32.53 22.7345 32.5311 22.7345C32.5323 22.7345 32.5335 22.7345 32.5346 22.7345C32.5358 22.7345 32.537 22.7345 32.5381 22.7345C32.5393 22.7345 32.5405 22.7345 32.5416 22.7345C32.5428 22.7345 32.544 22.7345 32.5451 22.7345C32.5463 22.7345 32.5475 22.7345 32.5486 22.7345C32.5498 22.7345 32.551 22.7345 32.5521 22.7345C32.5533 22.7345 32.5545 22.7345 32.5556 22.7345C32.5568 22.7345 32.558 22.7345 32.5591 22.7345C32.5603 22.7345 32.5615 22.7345 32.5626 22.7345C32.5638 22.7345 32.565 22.7345 32.5661 22.7345C32.5673 22.7345 32.5685 22.7345 32.5697 22.7345C32.5708 22.7345 32.572 22.7345 32.5732 22.7345C32.5743 22.7345 32.5755 22.7345 32.5767 22.7345C32.5778 22.7345 32.579 22.7345 32.5802 22.7345C32.5814 22.7345 32.5825 22.7345 32.5837 22.7345C32.5849 22.7345 32.586 22.7345 32.5872 22.7345C32.5884 22.7345 32.5896 22.7345 32.5907 22.7345C32.5919 22.7345 32.5931 22.7345 32.5942 22.7345C32.5954 22.7345 32.5966 22.7345 32.5978 22.7345C32.5989 22.7345 32.6001 22.7345 32.6013 22.7345C32.6025 22.7345 32.6036 22.7345 32.6048 22.7345C32.606 22.7345 32.6071 22.7345 32.6083 22.7345C32.6095 22.7345 32.6107 22.7345 32.6118 22.7345C32.613 22.7345 32.6142 22.7345 32.6154 22.7345C32.6165 22.7345 32.6177 22.7345 32.6189 22.7345C32.6201 22.7345 32.6212 22.7345 32.6224 22.7345C32.6236 22.7345 32.6248 22.7345 32.626 22.7345C32.6271 22.7345 32.6283 22.7345 32.6295 22.7345C32.6307 22.7345 32.6318 22.7345 32.633 22.7345C32.6342 22.7345 32.6354 22.7345 32.6365 22.7345C32.6377 22.7345 32.6389 22.7345 32.6401 22.7345C32.6413 22.7345 32.6424 22.7345 32.6436 22.7345C32.6448 22.7345 32.646 22.7345 32.6472 22.7345C32.6483 22.7345 32.6495 22.7345 32.6507 22.7345C32.6519 22.7345 32.653 22.7345 32.6542 22.7345C32.6554 22.7345 32.6566 22.7345 32.6578 22.7345C32.659 22.7345 32.6601 22.7345 32.6613 22.7345C32.6625 22.7345 32.6637 22.7345 32.6649 22.7345C32.666 22.7345 32.6672 22.7345 32.6684 22.7345C32.6696 22.7345 32.6708 22.7345 32.672 22.7345C32.6731 22.7345 32.6743 22.7345 32.6755 22.7345C32.6767 22.7345 32.6779 22.7345 32.679 22.7345C32.6802 22.7345 32.6814 22.7345 32.6826 22.7345C32.6838 22.7345 32.685 22.7345 32.6862 22.7345C32.6873 22.7345 32.6885 22.7345 32.6897 22.7345C32.6909 22.7345 32.6921 22.7345 32.6933 22.7345C32.6945 22.7345 32.6956 22.7345 32.6968 22.7345C32.698 22.7345 32.6992 22.7345 32.7004 22.7345C32.7016 22.7345 32.7028 22.7345 32.7039 22.7345C32.7051 22.7345 32.7063 22.7345 32.7075 22.7345C32.7087 22.7345 32.7099 22.7345 32.7111 22.7345C32.7123 22.7345 32.7134 22.7345 32.7146 22.7345C32.7158 22.7345 32.717 22.7345 32.7182 22.7345C32.7194 22.7345 32.7206 22.7345 32.7218 22.7345C32.723 22.7345 32.7241 22.7345 32.7253 22.7345C32.7265 22.7345 32.7277 22.7345 32.7289 22.7345C32.7301 22.7345 32.7313 22.7345 32.7325 22.7345C32.7337 22.7345 32.7349 22.7345 32.7361 22.7345C32.7372 22.7345 32.7384 22.7345 32.7396 22.7345C32.7408 22.7345 32.742 22.7345 32.7432 22.7345C32.7444 22.7345 32.7456 22.7345 32.7468 22.7345C32.748 22.7345 32.7492 22.7345 32.7504 22.7345C32.7516 22.7345 32.7528 22.7345 32.754 22.7345C32.7552 22.7345 32.7563 22.7345 32.7575 22.7345C32.7587 22.7345 32.7599 22.7345 32.7611 22.7345C32.7623 22.7345 32.7635 22.7345 32.7647 22.7345C32.7659 22.7345 32.7671 22.7345 32.7683 22.7345C32.7695 22.7345 32.7707 22.7345 32.7719 22.7345C32.7731 22.7345 32.7743 22.7345 32.7755 22.7345C32.7767 22.7345 32.7779 22.7345 32.7791 22.7345C32.7803 22.7345 32.7815 22.7345 32.7827 22.7345C32.7839 22.7345 32.7851 22.7345 32.7863 22.7345C32.7875 22.7345 32.7887 22.7345 32.7899 22.7345C32.7911 22.7345 32.7923 22.7345 32.7935 22.7345C32.7947 22.7345 32.7959 22.7345 32.7971 22.7345C32.7983 22.7345 32.7995 22.7345 32.8007 22.7345C32.8019 22.7345 32.8031 22.7345 32.8043 22.7345C32.8055 22.7345 32.8067 22.7345 32.8079 22.7345C32.8091 22.7345 32.8103 22.7345 32.8115 22.7345C32.8127 22.7345 32.8139 22.7345 32.8151 22.7345C32.8163 22.7345 32.8176 22.7345 32.8188 22.7345C32.82 22.7345 32.8212 22.7345 32.8224 22.7345C32.8236 22.7345 32.8248 22.7345 32.826 22.7345C32.8272 22.7345 32.8284 22.7345 32.8296 22.7345C32.8308 22.7345 32.832 22.7345 32.8332 22.7345C32.8344 22.7345 32.8356 22.7345 32.8369 22.7345C32.8381 22.7345 32.8393 22.7345 32.8405 22.7345C32.8417 22.7345 32.8429 22.7345 32.8441 22.7345C32.8453 22.7345 32.8465 22.7345 32.8477 22.7345C32.849 22.7345 32.8502 22.7345 32.8514 22.7345C32.8526 22.7345 32.8538 22.7345 32.855 22.7345C32.8562 22.7345 32.8574 22.7345 32.8586 22.7345C32.8599 22.7345 32.8611 22.7345 32.8623 22.7345C32.8635 22.7345 32.8647 22.7345 32.8659 22.7345C32.8671 22.7345 32.8684 22.7345 32.8696 22.7345C32.8708 22.7345 32.872 22.7345 32.8732 22.7345C32.8744 22.7345 32.8756 22.7345 32.8769 22.7345C32.8781 22.7345 32.8793 22.7345 32.8805 22.7345C32.8817 22.7345 32.8829 22.7345 32.8842 22.7345C32.8854 22.7345 32.8866 22.7345 32.8878 22.7345C32.889 22.7345 32.8902 22.7345 32.8915 22.7345C32.8927 22.7345 32.8939 22.7345 32.8951 22.7345C32.8963 22.7345 32.8976 22.7345 32.8988 22.7345C32.9 22.7345 32.9012 22.7345 32.9024 22.7345C32.9037 22.7345 32.9049 22.7345 32.9061 22.7345C32.9073 22.7345 32.9085 22.7345 32.9098 22.7345C32.911 22.7345 32.9122 22.7345 32.9134 22.7345C32.9146 22.7345 32.9159 22.7345 32.9171 22.7345C32.9183 22.7345 32.9195 22.7345 32.9208 22.7345C32.922 22.7345 32.9232 22.7345 32.9244 22.7345C32.9257 22.7345 32.9269 22.7345 32.9281 22.7345C32.9293 22.7345 32.9306 22.7345 32.9318 22.7345C32.933 22.7345 32.9342 22.7345 32.9355 22.7345C32.9367 22.7345 32.9379 22.7345 32.9391 22.7345C32.9404 22.7345 32.9416 22.7345 32.9428 22.7345C32.9441 22.7345 32.9453 22.7345 32.9465 22.7345C32.9477 22.7345 32.949 22.7345 32.9502 22.7345C32.9514 22.7345 32.9527 22.7345 32.9539 22.7345C32.9551 22.7345 32.9564 22.7345 32.9576 22.7345C32.9588 22.7345 32.96 22.7345 32.9613 22.7345C32.9625 22.7345 32.9637 22.7345 32.965 22.7345C32.9662 22.7345 32.9674 22.7345 32.9687 22.7345C32.9699 22.7345 32.9711 22.7345 32.9724 22.7345C32.9736 22.7345 32.9748 22.7345 32.9761 22.7345C32.9773 22.7345 32.9785 22.7345 32.9798 22.7345C32.981 22.7345 32.9823 22.7345 32.9835 22.7345C32.9847 22.7345 32.986 22.7345 32.9872 22.7345C32.9884 22.7345 32.9897 22.7345 32.9909 22.7345C32.9921 22.7345 32.9934 22.7345 32.9946 22.7345C32.9959 22.7345 32.9971 22.7345 32.9983 22.7345C32.9996 22.7345 33.0008 22.7345 33.0021 22.7345C33.0033 22.7345 33.0045 22.7345 33.0058 22.7345C33.007 22.7345 33.0083 22.7345 33.0095 22.7345C33.0107 22.7345 33.012 22.7345 33.0132 22.7345C33.0145 22.7345 33.0157 22.7345 33.017 22.7345C33.0182 22.7345 33.0194 22.7345 33.0207 22.7345C33.0219 22.7345 33.0232 22.7345 33.0244 22.7345C33.0257 22.7345 33.0269 22.7345 33.0282 22.7345C33.0294 22.7345 33.0306 22.7345 33.0319 22.7345C33.0331 22.7345 33.0344 22.7345 33.0356 22.7345C33.0369 22.7345 33.0381 22.7345 33.0394 22.7345C33.0406 22.7345 33.0419 22.7345 33.0431 22.7345C33.0444 22.7345 33.0456 22.7345 33.0469 22.7345C33.0481 22.7345 33.0494 22.7345 33.0506 22.7345C33.0519 22.7345 33.0531 22.7345 33.0544 22.7345C33.0556 22.7345 33.0569 22.7345 33.0581 22.7345C33.0594 22.7345 33.0606 22.7345 33.0619 22.7345C33.0631 22.7345 33.0644 22.7345 33.0656 22.7345C33.0669 22.7345 33.0681 22.7345 33.0694 22.7345C33.0706 22.7345 33.0719 22.7345 33.0732 22.7345C33.0744 22.7345 33.0757 22.7345 33.0769 22.7345C33.0782 22.7345 33.0794 22.7345 33.0807 22.7345C33.0819 22.7345 33.0832 22.7345 33.0845 22.7345C33.0857 22.7345 33.087 22.7345 33.0882 22.7345C33.0895 22.7345 33.0908 22.7345 33.092 22.7345C33.0933 22.7345 33.0945 22.7345 33.0958 22.7345C33.0971 22.7345 33.0983 22.7345 33.0996 22.7345C33.1008 22.7345 33.1021 22.7345 33.1034 22.7345C33.1046 22.7345 33.1059 22.7345 33.1071 22.7345C33.1084 22.7345 33.1097 22.7345 33.1109 22.7345C33.1122 22.7345 33.1135 22.7345 33.1147 22.7345C33.116 22.7345 33.1173 22.7345 33.1185 22.7345C33.1198 22.7345 33.1211 22.7345 33.1223 22.7345C33.1236 22.7345 33.1248 22.7345 33.1261 22.7345C33.1274 22.7345 33.1287 22.7345 33.1299 22.7345C33.1312 22.7345 33.1325 22.7345 33.1337 22.7345C33.135 22.7345 33.1363 22.7345 33.1375 22.7345C33.1388 22.7345 33.1401 22.7345 33.1413 22.7345C33.1426 22.7345 33.1439 22.7345 33.1451 22.7345C33.1464 22.7345 33.1477 22.7345 33.149 22.7345C33.1502 22.7345 33.1515 22.7345 33.1528 22.7345C33.1541 22.7345 33.1553 22.7345 33.1566 22.7345C33.1579 22.7345 33.1592 22.7345 33.1604 22.7345C33.1617 22.7345 33.163 22.7345 33.1643 22.7345C33.1655 22.7345 33.1668 22.7345 33.1681 22.7345C33.1694 22.7345 33.1706 22.7345 33.1719 22.7345C33.1732 22.7345 33.1745 22.7345 33.1757 22.7345C33.177 22.7345 33.1783 22.7345 33.1796 22.7345C33.1809 22.7345 33.1821 22.7345 33.1834 22.7345C33.1847 22.7345 33.186 22.7345 33.1873 22.7345C33.1885 22.7345 33.1898 22.7345 33.1911 22.7345C33.1924 22.7345 33.1937 22.7345 33.195 22.7345C33.1962 22.7345 33.1975 22.7345 33.1988 22.7345C33.2001 22.7345 33.2014 22.7345 33.2027 22.7345C33.2039 22.7345 33.2052 22.7345 33.2065 22.7345C33.2078 22.7345 33.2091 22.7345 33.2104 22.7345C33.2117 22.7345 33.2129 22.7345 33.2142 22.7345C33.2155 22.7345 33.2168 22.7345 33.2181 22.7345C33.2194 22.7345 33.2207 22.7345 33.222 22.7345C33.2233 22.7345 33.2245 22.7345 33.2258 22.7345C33.2271 22.7345 33.2284 22.7345 33.2297 22.7345C33.231 22.7345 33.2323 22.7345 33.2336 22.7345C33.2349 22.7345 33.2362 22.7345 33.2375 22.7345C33.2388 22.7345 33.24 22.7345 33.2413 22.7345C33.2426 22.7345 33.2439 22.7345 33.2452 22.7345C33.2465 22.7345 33.2478 22.7345 33.2491 22.7345C33.2504 22.7345 33.2517 22.7345 33.253 22.7345C33.2543 22.7345 33.2556 22.7345 33.2569 22.7345C33.2582 22.7345 33.2595 22.7345 33.2608 22.7345C33.2621 22.7345 33.2634 22.7345 33.2647 22.7345C33.266 22.7345 33.2673 22.7345 33.2686 22.7345C33.2699 22.7345 33.2712 22.7345 33.2725 22.7345C33.2738 22.7345 33.2751 22.7345 33.2764 22.7345C33.2777 22.7345 33.279 22.7345 33.2803 22.7345C33.2816 22.7345 33.2829 22.7345 33.2842 22.7345C33.2855 22.7345 33.2868 22.7345 33.2881 22.7345C33.2895 22.7345 33.2908 22.7345 33.2921 22.7345C33.2934 22.7345 33.2947 22.7345 33.296 22.7345C33.2973 22.7345 33.2986 22.7345 33.2999 22.7345C33.3012 22.7345 33.3025 22.7345 33.3038 22.7345C33.3051 22.7345 33.3065 22.7345 33.3078 22.7345C33.3091 22.7345 33.3104 22.7345 33.3117 22.7345C33.313 22.7345 33.3143 22.7345 33.3156 22.7345C33.317 22.7345 33.3183 22.7345 33.3196 22.7345C33.3209 22.7345 33.3222 22.7345 33.3235 22.7345C33.3248 22.7345 33.3262 22.7345 33.3275 22.7345C33.3288 22.7345 33.3301 22.7345 33.3314 22.7345C33.3327 22.7345 33.3341 22.7345 33.3354 22.7345C33.3367 22.7345 33.338 22.7345 33.3393 22.7345C33.3406 22.7345 33.342 22.7345 33.3433 22.7345C33.3446 22.7345 33.3459 22.7345 33.3472 22.7345C33.3486 22.7345 33.3499 22.7345 33.3512 22.7345C33.3525 22.7345 33.3539 22.7345 33.3552 22.7345C33.3565 22.7345 33.3578 22.7345 33.3592 22.7345C33.3605 22.7345 33.3618 22.7345 33.3631 22.7345C33.3645 22.7345 33.3658 22.7345 33.3671 22.7345C33.3684 22.7345 33.3698 22.7345 33.3711 22.7345C33.3724 22.7345 33.3737 22.7345 33.3751 22.7345C33.3764 22.7345 33.3777 22.7345 33.3791 22.7345C33.3804 22.7345 33.3817 22.7345 33.383 22.7345C33.3844 22.7345 33.3857 22.7345 33.387 22.7345C33.3884 22.7345 33.3897 22.7345 33.391 22.7345C33.3924 22.7345 33.3937 22.7345 33.395 22.7345C33.3964 22.7345 33.3977 22.7345 33.399 22.7345C33.4004 22.7345 33.4017 22.7345 33.403 22.7345C33.4044 22.7345 33.4057 22.7345 33.4071 22.7345C33.4084 22.7345 33.4097 22.7345 33.4111 22.7345C33.4124 22.7345 33.4137 22.7345 33.4151 22.7345C33.4164 22.7345 33.4178 22.7345 33.4191 22.7345C33.4204 22.7345 33.4218 22.7345 33.4231 22.7345C33.4245 22.7345 33.4258 22.7345 33.4272 22.7345C33.4285 22.7345 33.4298 22.7345 33.4312 22.7345C33.4325 22.7345 33.4339 22.7345 33.4352 22.7345C33.4366 22.7345 33.4379 22.7345 33.4392 22.7345C33.4406 22.7345 33.4419 22.7345 33.4433 22.7345C33.4446 22.7345 33.446 22.7345 33.4473 22.7345C33.4487 22.7345 33.45 22.7345 33.4514 22.7345C33.4527 22.7345 33.4541 22.7345 33.4554 22.7345C33.4568 22.7345 33.4581 22.7345 33.4595 22.7345C33.4608 22.7345 33.4622 22.7345 33.4635 22.7345C33.4649 22.7345 33.4662 22.7345 33.4676 22.7345C33.4689 22.7345 33.4703 22.7345 33.4717 22.7345C33.473 22.7345 33.4744 22.7345 33.4757 22.7345C33.4771 22.7345 33.4784 22.7345 33.4798 22.7345C33.4811 22.7345 33.4825 22.7345 33.4839 22.7345C33.4852 22.7345 33.4866 22.7345 33.4879 22.7345C33.4893 22.7345 33.4907 22.7345 33.492 22.7345C33.4934 22.7345 33.4947 22.7345 33.4961 22.7345C33.4975 22.7345 33.4988 22.7345 33.5002 22.7345C33.5015 22.7345 33.5029 22.7345 33.5043 22.7345C33.5056 22.7345 33.507 22.7345 33.5084 22.7345C33.5097 22.7345 33.5111 22.7345 33.5125 22.7345C33.5138 22.7345 33.5152 22.7345 33.5166 22.7345C33.5179 22.7345 33.5193 22.7345 33.5207 22.7345C33.522 22.7345 33.5234 22.7345 33.5248 22.7345C33.5261 22.7345 33.5275 22.7345 33.5289 22.7345C33.5303 22.7345 33.5316 22.7345 33.533 22.7345C33.5344 22.7345 33.5357 22.7345 33.5371 22.7345C33.5385 22.7345 33.5399 22.7345 33.5412 22.7345C33.5426 22.7345 33.544 22.7345 33.5454 22.7345C33.5467 22.7345 33.5481 22.7345 33.5495 22.7345C33.5509 22.7345 33.5522 22.7345 33.5536 22.7345C33.555 22.7345 33.5564 22.7345 33.5578 22.7345C33.5591 22.7345 33.5605 22.7345 33.5619 22.7345C33.5633 22.7345 33.5647 22.7345 33.566 22.7345C33.5674 22.7345 33.5688 22.7345 33.5702 22.7345C33.5716 22.7345 33.573 22.7345 33.5743 22.7345C33.5757 22.7345 33.5771 22.7345 33.5785 22.7345C33.5799 22.7345 33.5813 22.7345 33.5827 22.7345C33.584 22.7345 33.5854 22.7345 33.5868 22.7345C33.5882 22.7345 33.5896 22.7345 33.591 22.7345C33.5924 22.7345 33.5938 22.7345 33.5951 22.7345C33.5965 22.7345 33.5979 22.7345 33.5993 22.7345C33.6007 22.7345 33.6021 22.7345 33.6035 22.7345C33.6049 22.7345 33.6063 22.7345 33.6077 22.7345C33.6091 22.7345 33.6105 22.7345 33.6119 22.7345C33.6133 22.7345 33.6146 22.7345 33.616 22.7345C33.6174 22.7345 33.6188 22.7345 33.6202 22.7345C33.6216 22.7345 33.623 22.7345 33.6244 22.7345C33.6258 22.7345 33.6272 22.7345 33.6286 22.7345C33.63 22.7345 33.6314 22.7345 33.6328 22.7345C33.6342 22.7345 33.6356 22.7345 33.637 22.7345C33.6384 22.7345 33.6398 22.7345 33.6412 22.7345C33.6426 22.7345 33.644 22.7345 33.6455 22.7345C33.6469 22.7345 33.6483 22.7345 33.6497 22.7345C33.6511 22.7345 33.6525 22.7345 33.6539 22.7345C33.6553 22.7345 33.6567 22.7345 33.6581 22.7345C33.6595 22.7345 33.6609 22.7345 33.6623 22.7345C33.6637 22.7345 33.6652 22.7345 33.6666 22.7345C33.668 22.7345 33.6694 22.7345 33.6708 22.7345C33.6722 22.7345 33.6736 22.7345 33.675 22.7345C33.6765 22.7345 33.6779 22.7345 33.6793 22.7345C33.6807 22.7345 33.6821 22.7345 33.6835 22.7345C33.685 22.7345 33.6864 22.7345 33.6878 22.7345C33.6892 22.7345 33.6906 22.7345 33.692 22.7345C33.6935 22.7345 33.6949 22.7345 33.6963 22.7345C33.6977 22.7345 33.6991 22.7345 33.7006 22.7345C33.702 22.7345 33.7034 22.7345 33.7048 22.7345C33.7063 22.7345 33.7077 22.7345 33.7091 22.7345C33.7105 22.7345 33.7119 22.7345 33.7134 22.7345C33.7148 22.7345 33.7162 22.7345 33.7177 22.7345C33.7191 22.7345 33.7205 22.7345 33.7219 22.7345C33.7234 22.7345 33.7248 22.7345 33.7262 22.7345C33.7276 22.7345 33.7291 22.7345 33.7305 22.7345C33.7319 22.7345 33.7334 22.7345 33.7348 22.7345C33.7362 22.7345 33.7377 22.7345 33.7391 22.7345C33.7405 22.7345 33.742 22.7345 33.7434 22.7345C33.7448 22.7345 33.7463 22.7345 33.7477 22.7345C33.7491 22.7345 33.7506 22.7345 33.752 22.7345C33.7535 22.7345 33.7549 22.7345 33.7563 22.7345C33.7578 22.7345 33.7592 22.7345 33.7606 22.7345C33.7621 22.7345 33.7635 22.7345 33.765 22.7345C33.7664 22.7345 33.7679 22.7345 33.7693 22.7345C33.7707 22.7345 33.7722 22.7345 33.7736 22.7345C33.7751 22.7345 33.7765 22.7345 33.778 22.7345C33.7794 22.7345 33.7808 22.7345 33.7823 22.7345C33.7837 22.7345 33.7852 22.7345 33.7866 22.7345C33.7881 22.7345 33.7895 22.7345 33.791 22.7345C33.7924 22.7345 33.7939 22.7345 33.7953 22.7345C33.7968 22.7345 33.7982 22.7345 33.7997 22.7345C33.8011 22.7345 33.8026 22.7345 33.804 22.7345C33.8055 22.7345 33.807 22.7345 33.8084 22.7345C33.8099 22.7345 33.8113 22.7345 33.8128 22.7345C33.8142 22.7345 33.8157 22.7345 33.8171 22.7345C33.8186 22.7345 33.8201 22.7345 33.8215 22.7345C33.823 22.7345 33.8244 22.7345 33.8259 22.7345C33.8274 22.7345 33.8288 22.7345 33.8303 22.7345C33.8317 22.7345 33.8332 22.7345 33.8347 22.7345C33.8361 22.7345 33.8376 22.7345 33.8391 22.7345C33.8405 22.7345 33.842 22.7345 33.8435 22.7345C33.8449 22.7345 33.8464 22.7345 33.8479 22.7345C33.8493 22.7345 33.8508 22.7345 33.8523 22.7345C33.8537 22.7345 33.8552 22.7345 33.8567 22.7345C33.8581 22.7345 33.8596 22.7345 33.8611 22.7345C33.8626 22.7345 33.864 22.7345 33.8655 22.7345C33.867 22.7345 33.8684 22.7345 33.8699 22.7345C33.8714 22.7345 33.8729 22.7345 33.8743 22.7345C33.8758 22.7345 33.8773 22.7345 33.8788 22.7345C33.8802 22.7345 33.8817 22.7345 33.8832 22.7345C33.8847 22.7345 33.8862 22.7345 33.8876 22.7345C33.8891 22.7345 33.8906 22.7345 33.8921 22.7345C33.8936 22.7345 33.8951 22.7345 33.8965 22.7345C33.898 22.7345 33.8995 22.7345 33.901 22.7345C33.9025 22.7345 33.9039 22.7345 33.9054 22.7345C33.9069 22.7345 33.9084 22.7345 33.9099 22.7345C33.9114 22.7345 33.9129 22.7345 33.9144 22.7345C33.9158 22.7345 33.9173 22.7345 33.9188 22.7345C33.9203 22.7345 33.9218 22.7345 33.9233 22.7345C33.9248 22.7345 33.9263 22.7345 33.9278 22.7345C33.9293 22.7345 33.9308 22.7345 33.9323 22.7345C33.9338 22.7345 33.9352 22.7345 33.9367 22.7345C33.9382 22.7345 33.9397 22.7345 33.9412 22.7345C33.9427 22.7345 33.9442 22.7345 33.9457 22.7345C33.9472 22.7345 33.9487 22.7345 33.9502 22.7345C33.9517 22.7345 33.9532 22.7345 33.9547 22.7345C33.9562 22.7345 33.9577 22.7345 33.9592 22.7345C33.9607 22.7345 33.9622 22.7345 33.9637 22.7345C33.9652 22.7345 33.9668 22.7345 33.9683 22.7345C33.9698 22.7345 33.9713 22.7345 33.9728 22.7345C33.9743 22.7345 33.9758 22.7345 33.9773 22.7345C33.9788 22.7345 33.9803 22.7345 33.9818 22.7345C33.9833 22.7345 33.9849 22.7345 33.9864 22.7345C33.9879 22.7345 33.9894 22.7345 33.9909 22.7345C33.9924 22.7345 33.9939 22.7345 33.9955 22.7345C33.997 22.7345 33.9985 22.7345 34 22.7345V21.7345C33.9985 21.7345 33.997 21.7345 33.9955 21.7345C33.9939 21.7345 33.9924 21.7345 33.9909 21.7345C33.9894 21.7345 33.9879 21.7345 33.9864 21.7345C33.9849 21.7345 33.9833 21.7345 33.9818 21.7345C33.9803 21.7345 33.9788 21.7345 33.9773 21.7345C33.9758 21.7345 33.9743 21.7345 33.9728 21.7345C33.9713 21.7345 33.9698 21.7345 33.9683 21.7345C33.9668 21.7345 33.9652 21.7345 33.9637 21.7345C33.9622 21.7345 33.9607 21.7345 33.9592 21.7345C33.9577 21.7345 33.9562 21.7345 33.9547 21.7345C33.9532 21.7345 33.9517 21.7345 33.9502 21.7345C33.9487 21.7345 33.9472 21.7345 33.9457 21.7345C33.9442 21.7345 33.9427 21.7345 33.9412 21.7345C33.9397 21.7345 33.9382 21.7345 33.9367 21.7345C33.9352 21.7345 33.9338 21.7345 33.9323 21.7345C33.9308 21.7345 33.9293 21.7345 33.9278 21.7345C33.9263 21.7345 33.9248 21.7345 33.9233 21.7345C33.9218 21.7345 33.9203 21.7345 33.9188 21.7345C33.9173 21.7345 33.9158 21.7345 33.9144 21.7345C33.9129 21.7345 33.9114 21.7345 33.9099 21.7345C33.9084 21.7345 33.9069 21.7345 33.9054 21.7345C33.9039 21.7345 33.9025 21.7345 33.901 21.7345C33.8995 21.7345 33.898 21.7345 33.8965 21.7345C33.8951 21.7345 33.8936 21.7345 33.8921 21.7345C33.8906 21.7345 33.8891 21.7345 33.8876 21.7345C33.8862 21.7345 33.8847 21.7345 33.8832 21.7345C33.8817 21.7345 33.8802 21.7345 33.8788 21.7345C33.8773 21.7345 33.8758 21.7345 33.8743 21.7345C33.8729 21.7345 33.8714 21.7345 33.8699 21.7345C33.8684 21.7345 33.867 21.7345 33.8655 21.7345C33.864 21.7345 33.8626 21.7345 33.8611 21.7345C33.8596 21.7345 33.8581 21.7345 33.8567 21.7345C33.8552 21.7345 33.8537 21.7345 33.8523 21.7345C33.8508 21.7345 33.8493 21.7345 33.8479 21.7345C33.8464 21.7345 33.8449 21.7345 33.8435 21.7345C33.842 21.7345 33.8405 21.7345 33.8391 21.7345C33.8376 21.7345 33.8361 21.7345 33.8347 21.7345C33.8332 21.7345 33.8317 21.7345 33.8303 21.7345C33.8288 21.7345 33.8274 21.7345 33.8259 21.7345C33.8244 21.7345 33.823 21.7345 33.8215 21.7345C33.8201 21.7345 33.8186 21.7345 33.8171 21.7345C33.8157 21.7345 33.8142 21.7345 33.8128 21.7345C33.8113 21.7345 33.8099 21.7345 33.8084 21.7345C33.807 21.7345 33.8055 21.7345 33.804 21.7345C33.8026 21.7345 33.8011 21.7345 33.7997 21.7345C33.7982 21.7345 33.7968 21.7345 33.7953 21.7345C33.7939 21.7345 33.7924 21.7345 33.791 21.7345C33.7895 21.7345 33.7881 21.7345 33.7866 21.7345C33.7852 21.7345 33.7837 21.7345 33.7823 21.7345C33.7808 21.7345 33.7794 21.7345 33.778 21.7345C33.7765 21.7345 33.7751 21.7345 33.7736 21.7345C33.7722 21.7345 33.7707 21.7345 33.7693 21.7345C33.7679 21.7345 33.7664 21.7345 33.765 21.7345C33.7635 21.7345 33.7621 21.7345 33.7606 21.7345C33.7592 21.7345 33.7578 21.7345 33.7563 21.7345C33.7549 21.7345 33.7535 21.7345 33.752 21.7345C33.7506 21.7345 33.7491 21.7345 33.7477 21.7345C33.7463 21.7345 33.7448 21.7345 33.7434 21.7345C33.742 21.7345 33.7405 21.7345 33.7391 21.7345C33.7377 21.7345 33.7362 21.7345 33.7348 21.7345C33.7334 21.7345 33.7319 21.7345 33.7305 21.7345C33.7291 21.7345 33.7276 21.7345 33.7262 21.7345C33.7248 21.7345 33.7234 21.7345 33.7219 21.7345C33.7205 21.7345 33.7191 21.7345 33.7177 21.7345C33.7162 21.7345 33.7148 21.7345 33.7134 21.7345C33.7119 21.7345 33.7105 21.7345 33.7091 21.7345C33.7077 21.7345 33.7063 21.7345 33.7048 21.7345C33.7034 21.7345 33.702 21.7345 33.7006 21.7345C33.6991 21.7345 33.6977 21.7345 33.6963 21.7345C33.6949 21.7345 33.6935 21.7345 33.692 21.7345C33.6906 21.7345 33.6892 21.7345 33.6878 21.7345C33.6864 21.7345 33.685 21.7345 33.6835 21.7345C33.6821 21.7345 33.6807 21.7345 33.6793 21.7345C33.6779 21.7345 33.6765 21.7345 33.675 21.7345C33.6736 21.7345 33.6722 21.7345 33.6708 21.7345C33.6694 21.7345 33.668 21.7345 33.6666 21.7345C33.6652 21.7345 33.6637 21.7345 33.6623 21.7345C33.6609 21.7345 33.6595 21.7345 33.6581 21.7345C33.6567 21.7345 33.6553 21.7345 33.6539 21.7345C33.6525 21.7345 33.6511 21.7345 33.6497 21.7345C33.6483 21.7345 33.6469 21.7345 33.6455 21.7345C33.644 21.7345 33.6426 21.7345 33.6412 21.7345C33.6398 21.7345 33.6384 21.7345 33.637 21.7345C33.6356 21.7345 33.6342 21.7345 33.6328 21.7345C33.6314 21.7345 33.63 21.7345 33.6286 21.7345C33.6272 21.7345 33.6258 21.7345 33.6244 21.7345C33.623 21.7345 33.6216 21.7345 33.6202 21.7345C33.6188 21.7345 33.6174 21.7345 33.616 21.7345C33.6146 21.7345 33.6133 21.7345 33.6119 21.7345C33.6105 21.7345 33.6091 21.7345 33.6077 21.7345C33.6063 21.7345 33.6049 21.7345 33.6035 21.7345C33.6021 21.7345 33.6007 21.7345 33.5993 21.7345C33.5979 21.7345 33.5965 21.7345 33.5951 21.7345C33.5938 21.7345 33.5924 21.7345 33.591 21.7345C33.5896 21.7345 33.5882 21.7345 33.5868 21.7345C33.5854 21.7345 33.584 21.7345 33.5827 21.7345C33.5813 21.7345 33.5799 21.7345 33.5785 21.7345C33.5771 21.7345 33.5757 21.7345 33.5743 21.7345C33.573 21.7345 33.5716 21.7345 33.5702 21.7345C33.5688 21.7345 33.5674 21.7345 33.566 21.7345C33.5647 21.7345 33.5633 21.7345 33.5619 21.7345C33.5605 21.7345 33.5591 21.7345 33.5578 21.7345C33.5564 21.7345 33.555 21.7345 33.5536 21.7345C33.5522 21.7345 33.5509 21.7345 33.5495 21.7345C33.5481 21.7345 33.5467 21.7345 33.5454 21.7345C33.544 21.7345 33.5426 21.7345 33.5412 21.7345C33.5399 21.7345 33.5385 21.7345 33.5371 21.7345C33.5357 21.7345 33.5344 21.7345 33.533 21.7345C33.5316 21.7345 33.5303 21.7345 33.5289 21.7345C33.5275 21.7345 33.5261 21.7345 33.5248 21.7345C33.5234 21.7345 33.522 21.7345 33.5207 21.7345C33.5193 21.7345 33.5179 21.7345 33.5166 21.7345C33.5152 21.7345 33.5138 21.7345 33.5125 21.7345C33.5111 21.7345 33.5097 21.7345 33.5084 21.7345C33.507 21.7345 33.5056 21.7345 33.5043 21.7345C33.5029 21.7345 33.5015 21.7345 33.5002 21.7345C33.4988 21.7345 33.4975 21.7345 33.4961 21.7345C33.4947 21.7345 33.4934 21.7345 33.492 21.7345C33.4907 21.7345 33.4893 21.7345 33.4879 21.7345C33.4866 21.7345 33.4852 21.7345 33.4839 21.7345C33.4825 21.7345 33.4811 21.7345 33.4798 21.7345C33.4784 21.7345 33.4771 21.7345 33.4757 21.7345C33.4744 21.7345 33.473 21.7345 33.4717 21.7345C33.4703 21.7345 33.4689 21.7345 33.4676 21.7345C33.4662 21.7345 33.4649 21.7345 33.4635 21.7345C33.4622 21.7345 33.4608 21.7345 33.4595 21.7345C33.4581 21.7345 33.4568 21.7345 33.4554 21.7345C33.4541 21.7345 33.4527 21.7345 33.4514 21.7345C33.45 21.7345 33.4487 21.7345 33.4473 21.7345C33.446 21.7345 33.4446 21.7345 33.4433 21.7345C33.4419 21.7345 33.4406 21.7345 33.4392 21.7345C33.4379 21.7345 33.4366 21.7345 33.4352 21.7345C33.4339 21.7345 33.4325 21.7345 33.4312 21.7345C33.4298 21.7345 33.4285 21.7345 33.4272 21.7345C33.4258 21.7345 33.4245 21.7345 33.4231 21.7345C33.4218 21.7345 33.4204 21.7345 33.4191 21.7345C33.4178 21.7345 33.4164 21.7345 33.4151 21.7345C33.4137 21.7345 33.4124 21.7345 33.4111 21.7345C33.4097 21.7345 33.4084 21.7345 33.4071 21.7345C33.4057 21.7345 33.4044 21.7345 33.403 21.7345C33.4017 21.7345 33.4004 21.7345 33.399 21.7345C33.3977 21.7345 33.3964 21.7345 33.395 21.7345C33.3937 21.7345 33.3924 21.7345 33.391 21.7345C33.3897 21.7345 33.3884 21.7345 33.387 21.7345C33.3857 21.7345 33.3844 21.7345 33.383 21.7345C33.3817 21.7345 33.3804 21.7345 33.3791 21.7345C33.3777 21.7345 33.3764 21.7345 33.3751 21.7345C33.3737 21.7345 33.3724 21.7345 33.3711 21.7345C33.3698 21.7345 33.3684 21.7345 33.3671 21.7345C33.3658 21.7345 33.3645 21.7345 33.3631 21.7345C33.3618 21.7345 33.3605 21.7345 33.3592 21.7345C33.3578 21.7345 33.3565 21.7345 33.3552 21.7345C33.3539 21.7345 33.3525 21.7345 33.3512 21.7345C33.3499 21.7345 33.3486 21.7345 33.3472 21.7345C33.3459 21.7345 33.3446 21.7345 33.3433 21.7345C33.342 21.7345 33.3406 21.7345 33.3393 21.7345C33.338 21.7345 33.3367 21.7345 33.3354 21.7345C33.3341 21.7345 33.3327 21.7345 33.3314 21.7345C33.3301 21.7345 33.3288 21.7345 33.3275 21.7345C33.3262 21.7345 33.3248 21.7345 33.3235 21.7345C33.3222 21.7345 33.3209 21.7345 33.3196 21.7345C33.3183 21.7345 33.317 21.7345 33.3156 21.7345C33.3143 21.7345 33.313 21.7345 33.3117 21.7345C33.3104 21.7345 33.3091 21.7345 33.3078 21.7345C33.3065 21.7345 33.3051 21.7345 33.3038 21.7345C33.3025 21.7345 33.3012 21.7345 33.2999 21.7345C33.2986 21.7345 33.2973 21.7345 33.296 21.7345C33.2947 21.7345 33.2934 21.7345 33.2921 21.7345C33.2908 21.7345 33.2895 21.7345 33.2881 21.7345C33.2868 21.7345 33.2855 21.7345 33.2842 21.7345C33.2829 21.7345 33.2816 21.7345 33.2803 21.7345C33.279 21.7345 33.2777 21.7345 33.2764 21.7345C33.2751 21.7345 33.2738 21.7345 33.2725 21.7345C33.2712 21.7345 33.2699 21.7345 33.2686 21.7345C33.2673 21.7345 33.266 21.7345 33.2647 21.7345C33.2634 21.7345 33.2621 21.7345 33.2608 21.7345C33.2595 21.7345 33.2582 21.7345 33.2569 21.7345C33.2556 21.7345 33.2543 21.7345 33.253 21.7345C33.2517 21.7345 33.2504 21.7345 33.2491 21.7345C33.2478 21.7345 33.2465 21.7345 33.2452 21.7345C33.2439 21.7345 33.2426 21.7345 33.2413 21.7345C33.24 21.7345 33.2388 21.7345 33.2375 21.7345C33.2362 21.7345 33.2349 21.7345 33.2336 21.7345C33.2323 21.7345 33.231 21.7345 33.2297 21.7345C33.2284 21.7345 33.2271 21.7345 33.2258 21.7345C33.2245 21.7345 33.2233 21.7345 33.222 21.7345C33.2207 21.7345 33.2194 21.7345 33.2181 21.7345C33.2168 21.7345 33.2155 21.7345 33.2142 21.7345C33.2129 21.7345 33.2117 21.7345 33.2104 21.7345C33.2091 21.7345 33.2078 21.7345 33.2065 21.7345C33.2052 21.7345 33.2039 21.7345 33.2027 21.7345C33.2014 21.7345 33.2001 21.7345 33.1988 21.7345C33.1975 21.7345 33.1962 21.7345 33.195 21.7345C33.1937 21.7345 33.1924 21.7345 33.1911 21.7345C33.1898 21.7345 33.1885 21.7345 33.1873 21.7345C33.186 21.7345 33.1847 21.7345 33.1834 21.7345C33.1821 21.7345 33.1809 21.7345 33.1796 21.7345C33.1783 21.7345 33.177 21.7345 33.1757 21.7345C33.1745 21.7345 33.1732 21.7345 33.1719 21.7345C33.1706 21.7345 33.1694 21.7345 33.1681 21.7345C33.1668 21.7345 33.1655 21.7345 33.1643 21.7345C33.163 21.7345 33.1617 21.7345 33.1604 21.7345C33.1592 21.7345 33.1579 21.7345 33.1566 21.7345C33.1553 21.7345 33.1541 21.7345 33.1528 21.7345C33.1515 21.7345 33.1502 21.7345 33.149 21.7345C33.1477 21.7345 33.1464 21.7345 33.1451 21.7345C33.1439 21.7345 33.1426 21.7345 33.1413 21.7345C33.1401 21.7345 33.1388 21.7345 33.1375 21.7345C33.1363 21.7345 33.135 21.7345 33.1337 21.7345C33.1325 21.7345 33.1312 21.7345 33.1299 21.7345C33.1287 21.7345 33.1274 21.7345 33.1261 21.7345C33.1248 21.7345 33.1236 21.7345 33.1223 21.7345C33.1211 21.7345 33.1198 21.7345 33.1185 21.7345C33.1173 21.7345 33.116 21.7345 33.1147 21.7345C33.1135 21.7345 33.1122 21.7345 33.1109 21.7345C33.1097 21.7345 33.1084 21.7345 33.1071 21.7345C33.1059 21.7345 33.1046 21.7345 33.1034 21.7345C33.1021 21.7345 33.1008 21.7345 33.0996 21.7345C33.0983 21.7345 33.0971 21.7345 33.0958 21.7345C33.0945 21.7345 33.0933 21.7345 33.092 21.7345C33.0908 21.7345 33.0895 21.7345 33.0882 21.7345C33.087 21.7345 33.0857 21.7345 33.0845 21.7345C33.0832 21.7345 33.0819 21.7345 33.0807 21.7345C33.0794 21.7345 33.0782 21.7345 33.0769 21.7345C33.0757 21.7345 33.0744 21.7345 33.0732 21.7345C33.0719 21.7345 33.0706 21.7345 33.0694 21.7345C33.0681 21.7345 33.0669 21.7345 33.0656 21.7345C33.0644 21.7345 33.0631 21.7345 33.0619 21.7345C33.0606 21.7345 33.0594 21.7345 33.0581 21.7345C33.0569 21.7345 33.0556 21.7345 33.0544 21.7345C33.0531 21.7345 33.0519 21.7345 33.0506 21.7345C33.0494 21.7345 33.0481 21.7345 33.0469 21.7345C33.0456 21.7345 33.0444 21.7345 33.0431 21.7345C33.0419 21.7345 33.0406 21.7345 33.0394 21.7345C33.0381 21.7345 33.0369 21.7345 33.0356 21.7345C33.0344 21.7345 33.0331 21.7345 33.0319 21.7345C33.0306 21.7345 33.0294 21.7345 33.0282 21.7345C33.0269 21.7345 33.0257 21.7345 33.0244 21.7345C33.0232 21.7345 33.0219 21.7345 33.0207 21.7345C33.0194 21.7345 33.0182 21.7345 33.017 21.7345C33.0157 21.7345 33.0145 21.7345 33.0132 21.7345C33.012 21.7345 33.0107 21.7345 33.0095 21.7345C33.0083 21.7345 33.007 21.7345 33.0058 21.7345C33.0045 21.7345 33.0033 21.7345 33.0021 21.7345C33.0008 21.7345 32.9996 21.7345 32.9983 21.7345C32.9971 21.7345 32.9959 21.7345 32.9946 21.7345C32.9934 21.7345 32.9921 21.7345 32.9909 21.7345C32.9897 21.7345 32.9884 21.7345 32.9872 21.7345C32.986 21.7345 32.9847 21.7345 32.9835 21.7345C32.9823 21.7345 32.981 21.7345 32.9798 21.7345C32.9785 21.7345 32.9773 21.7345 32.9761 21.7345C32.9748 21.7345 32.9736 21.7345 32.9724 21.7345C32.9711 21.7345 32.9699 21.7345 32.9687 21.7345C32.9674 21.7345 32.9662 21.7345 32.965 21.7345C32.9637 21.7345 32.9625 21.7345 32.9613 21.7345C32.96 21.7345 32.9588 21.7345 32.9576 21.7345C32.9564 21.7345 32.9551 21.7345 32.9539 21.7345C32.9527 21.7345 32.9514 21.7345 32.9502 21.7345C32.949 21.7345 32.9477 21.7345 32.9465 21.7345C32.9453 21.7345 32.9441 21.7345 32.9428 21.7345C32.9416 21.7345 32.9404 21.7345 32.9391 21.7345C32.9379 21.7345 32.9367 21.7345 32.9355 21.7345C32.9342 21.7345 32.933 21.7345 32.9318 21.7345C32.9306 21.7345 32.9293 21.7345 32.9281 21.7345C32.9269 21.7345 32.9257 21.7345 32.9244 21.7345C32.9232 21.7345 32.922 21.7345 32.9208 21.7345C32.9195 21.7345 32.9183 21.7345 32.9171 21.7345C32.9159 21.7345 32.9146 21.7345 32.9134 21.7345C32.9122 21.7345 32.911 21.7345 32.9098 21.7345C32.9085 21.7345 32.9073 21.7345 32.9061 21.7345C32.9049 21.7345 32.9037 21.7345 32.9024 21.7345C32.9012 21.7345 32.9 21.7345 32.8988 21.7345C32.8976 21.7345 32.8963 21.7345 32.8951 21.7345C32.8939 21.7345 32.8927 21.7345 32.8915 21.7345C32.8902 21.7345 32.889 21.7345 32.8878 21.7345C32.8866 21.7345 32.8854 21.7345 32.8842 21.7345C32.8829 21.7345 32.8817 21.7345 32.8805 21.7345C32.8793 21.7345 32.8781 21.7345 32.8769 21.7345C32.8756 21.7345 32.8744 21.7345 32.8732 21.7345C32.872 21.7345 32.8708 21.7345 32.8696 21.7345C32.8684 21.7345 32.8671 21.7345 32.8659 21.7345C32.8647 21.7345 32.8635 21.7345 32.8623 21.7345C32.8611 21.7345 32.8599 21.7345 32.8586 21.7345C32.8574 21.7345 32.8562 21.7345 32.855 21.7345C32.8538 21.7345 32.8526 21.7345 32.8514 21.7345C32.8502 21.7345 32.849 21.7345 32.8477 21.7345C32.8465 21.7345 32.8453 21.7345 32.8441 21.7345C32.8429 21.7345 32.8417 21.7345 32.8405 21.7345C32.8393 21.7345 32.8381 21.7345 32.8369 21.7345C32.8356 21.7345 32.8344 21.7345 32.8332 21.7345C32.832 21.7345 32.8308 21.7345 32.8296 21.7345C32.8284 21.7345 32.8272 21.7345 32.826 21.7345C32.8248 21.7345 32.8236 21.7345 32.8224 21.7345C32.8212 21.7345 32.82 21.7345 32.8188 21.7345C32.8176 21.7345 32.8163 21.7345 32.8151 21.7345C32.8139 21.7345 32.8127 21.7345 32.8115 21.7345C32.8103 21.7345 32.8091 21.7345 32.8079 21.7345C32.8067 21.7345 32.8055 21.7345 32.8043 21.7345C32.8031 21.7345 32.8019 21.7345 32.8007 21.7345C32.7995 21.7345 32.7983 21.7345 32.7971 21.7345C32.7959 21.7345 32.7947 21.7345 32.7935 21.7345C32.7923 21.7345 32.7911 21.7345 32.7899 21.7345C32.7887 21.7345 32.7875 21.7345 32.7863 21.7345C32.7851 21.7345 32.7839 21.7345 32.7827 21.7345C32.7815 21.7345 32.7803 21.7345 32.7791 21.7345C32.7779 21.7345 32.7767 21.7345 32.7755 21.7345C32.7743 21.7345 32.7731 21.7345 32.7719 21.7345C32.7707 21.7345 32.7695 21.7345 32.7683 21.7345C32.7671 21.7345 32.7659 21.7345 32.7647 21.7345C32.7635 21.7345 32.7623 21.7345 32.7611 21.7345C32.7599 21.7345 32.7587 21.7345 32.7575 21.7345C32.7563 21.7345 32.7552 21.7345 32.754 21.7345C32.7528 21.7345 32.7516 21.7345 32.7504 21.7345C32.7492 21.7345 32.748 21.7345 32.7468 21.7345C32.7456 21.7345 32.7444 21.7345 32.7432 21.7345C32.742 21.7345 32.7408 21.7345 32.7396 21.7345C32.7384 21.7345 32.7372 21.7345 32.7361 21.7345C32.7349 21.7345 32.7337 21.7345 32.7325 21.7345C32.7313 21.7345 32.7301 21.7345 32.7289 21.7345C32.7277 21.7345 32.7265 21.7345 32.7253 21.7345C32.7241 21.7345 32.723 21.7345 32.7218 21.7345C32.7206 21.7345 32.7194 21.7345 32.7182 21.7345C32.717 21.7345 32.7158 21.7345 32.7146 21.7345C32.7134 21.7345 32.7123 21.7345 32.7111 21.7345C32.7099 21.7345 32.7087 21.7345 32.7075 21.7345C32.7063 21.7345 32.7051 21.7345 32.7039 21.7345C32.7028 21.7345 32.7016 21.7345 32.7004 21.7345C32.6992 21.7345 32.698 21.7345 32.6968 21.7345C32.6956 21.7345 32.6945 21.7345 32.6933 21.7345C32.6921 21.7345 32.6909 21.7345 32.6897 21.7345C32.6885 21.7345 32.6873 21.7345 32.6862 21.7345C32.685 21.7345 32.6838 21.7345 32.6826 21.7345C32.6814 21.7345 32.6802 21.7345 32.679 21.7345C32.6779 21.7345 32.6767 21.7345 32.6755 21.7345C32.6743 21.7345 32.6731 21.7345 32.672 21.7345C32.6708 21.7345 32.6696 21.7345 32.6684 21.7345C32.6672 21.7345 32.666 21.7345 32.6649 21.7345C32.6637 21.7345 32.6625 21.7345 32.6613 21.7345C32.6601 21.7345 32.659 21.7345 32.6578 21.7345C32.6566 21.7345 32.6554 21.7345 32.6542 21.7345C32.653 21.7345 32.6519 21.7345 32.6507 21.7345C32.6495 21.7345 32.6483 21.7345 32.6472 21.7345C32.646 21.7345 32.6448 21.7345 32.6436 21.7345C32.6424 21.7345 32.6413 21.7345 32.6401 21.7345C32.6389 21.7345 32.6377 21.7345 32.6365 21.7345C32.6354 21.7345 32.6342 21.7345 32.633 21.7345C32.6318 21.7345 32.6307 21.7345 32.6295 21.7345C32.6283 21.7345 32.6271 21.7345 32.626 21.7345C32.6248 21.7345 32.6236 21.7345 32.6224 21.7345C32.6212 21.7345 32.6201 21.7345 32.6189 21.7345C32.6177 21.7345 32.6165 21.7345 32.6154 21.7345C32.6142 21.7345 32.613 21.7345 32.6118 21.7345C32.6107 21.7345 32.6095 21.7345 32.6083 21.7345C32.6071 21.7345 32.606 21.7345 32.6048 21.7345C32.6036 21.7345 32.6025 21.7345 32.6013 21.7345C32.6001 21.7345 32.5989 21.7345 32.5978 21.7345C32.5966 21.7345 32.5954 21.7345 32.5942 21.7345C32.5931 21.7345 32.5919 21.7345 32.5907 21.7345C32.5896 21.7345 32.5884 21.7345 32.5872 21.7345C32.586 21.7345 32.5849 21.7345 32.5837 21.7345C32.5825 21.7345 32.5814 21.7345 32.5802 21.7345C32.579 21.7345 32.5778 21.7345 32.5767 21.7345C32.5755 21.7345 32.5743 21.7345 32.5732 21.7345C32.572 21.7345 32.5708 21.7345 32.5697 21.7345C32.5685 21.7345 32.5673 21.7345 32.5661 21.7345C32.565 21.7345 32.5638 21.7345 32.5626 21.7345C32.5615 21.7345 32.5603 21.7345 32.5591 21.7345C32.558 21.7345 32.5568 21.7345 32.5556 21.7345C32.5545 21.7345 32.5533 21.7345 32.5521 21.7345C32.551 21.7345 32.5498 21.7345 32.5486 21.7345C32.5475 21.7345 32.5463 21.7345 32.5451 21.7345C32.544 21.7345 32.5428 21.7345 32.5416 21.7345C32.5405 21.7345 32.5393 21.7345 32.5381 21.7345C32.537 21.7345 32.5358 21.7345 32.5346 21.7345C32.5335 21.7345 32.5323 21.7345 32.5311 21.7345C32.53 21.7345 32.5288 21.7345 32.5276 21.7345C32.5265 21.7345 32.5253 21.7345 32.5241 21.7345C32.523 21.7345 32.5218 21.7345 32.5206 21.7345C32.5195 21.7345 32.5183 21.7345 32.5172 21.7345C32.516 21.7345 32.5148 21.7345 32.5137 21.7345C32.5125 21.7345 32.5113 21.7345 32.5102 21.7345C32.509 21.7345 32.5078 21.7345 32.5067 21.7345C32.5055 21.7345 32.5044 21.7345 32.5032 21.7345C32.502 21.7345 32.5009 21.7345 32.4997 21.7345C32.4986 21.7345 32.4974 21.7345 32.4962 21.7345C32.4951 21.7345 32.4939 21.7345 32.4927 21.7345C32.4916 21.7345 32.4904 21.7345 32.4893 21.7345C32.4881 21.7345 32.4869 21.7345 32.4858 21.7345C32.4846 21.7345 32.4835 21.7345 32.4823 21.7345C32.4811 21.7345 32.48 21.7345 32.4788 21.7345C32.4777 21.7345 32.4765 21.7345 32.4753 21.7345C32.4742 21.7345 32.473 21.7345 32.4719 21.7345C32.4707 21.7345 32.4695 21.7345 32.4684 21.7345C32.4672 21.7345 32.4661 21.7345 32.4649 21.7345C32.4637 21.7345 32.4626 21.7345 32.4614 21.7345C32.4603 21.7345 32.4591 21.7345 32.458 21.7345C32.4568 21.7345 32.4556 21.7345 32.4545 21.7345C32.4533 21.7345 32.4522 21.7345 32.451 21.7345C32.4498 21.7345 32.4487 21.7345 32.4475 21.7345C32.4464 21.7345 32.4452 21.7345 32.4441 21.7345C32.4429 21.7345 32.4417 21.7345 32.4406 21.7345C32.4394 21.7345 32.4383 21.7345 32.4371 21.7345C32.436 21.7345 32.4348 21.7345 32.4337 21.7345C32.4325 21.7345 32.4313 21.7345 32.4302 21.7345C32.429 21.7345 32.4279 21.7345 32.4267 21.7345C32.4256 21.7345 32.4244 21.7345 32.4233 21.7345C32.4221 21.7345 32.4209 21.7345 32.4198 21.7345C32.4186 21.7345 32.4175 21.7345 32.4163 21.7345C32.4152 21.7345 32.414 21.7345 32.4129 21.7345C32.4117 21.7345 32.4106 21.7345 32.4094 21.7345C32.4082 21.7345 32.4071 21.7345 32.4059 21.7345C32.4048 21.7345 32.4036 21.7345 32.4025 21.7345C32.4013 21.7345 32.4002 21.7345 32.399 21.7345C32.3979 21.7345 32.3967 21.7345 32.3956 21.7345C32.3944 21.7345 32.3933 21.7345 32.3921 21.7345C32.3909 21.7345 32.3898 21.7345 32.3886 21.7345C32.3875 21.7345 32.3863 21.7345 32.3852 21.7345C32.384 21.7345 32.3829 21.7345 32.3817 21.7345C32.3806 21.7345 32.3794 21.7345 32.3783 21.7345C32.3771 21.7345 32.376 21.7345 32.3748 21.7345C32.3737 21.7345 32.3725 21.7345 32.3714 21.7345C32.3702 21.7345 32.3691 21.7345 32.3679 21.7345C32.3668 21.7345 32.3656 21.7345 32.3645 21.7345C32.3633 21.7345 32.3622 21.7345 32.361 21.7345C32.3599 21.7345 32.3587 21.7345 32.3576 21.7345C32.3564 21.7345 32.3553 21.7345 32.3541 21.7345C32.353 21.7345 32.3518 21.7345 32.3507 21.7345C32.3495 21.7345 32.3484 21.7345 32.3472 21.7345C32.3461 21.7345 32.3449 21.7345 32.3438 21.7345C32.3426 21.7345 32.3415 21.7345 32.3403 21.7345C32.3392 21.7345 32.338 21.7345 32.3369 21.7345C32.3357 21.7345 32.3346 21.7345 32.3334 21.7345C32.3323 21.7345 32.3311 21.7345 32.33 21.7345C32.3288 21.7345 32.3277 21.7345 32.3265 21.7345C32.3254 21.7345 32.3242 21.7345 32.3231 21.7345C32.3219 21.7345 32.3208 21.7345 32.3196 21.7345C32.3185 21.7345 32.3173 21.7345 32.3162 21.7345C32.315 21.7345 32.3139 21.7345 32.3127 21.7345C32.3116 21.7345 32.3104 21.7345 32.3093 21.7345C32.3082 21.7345 32.307 21.7345 32.3059 21.7345C32.3047 21.7345 32.3036 21.7345 32.3024 21.7345C32.3013 21.7345 32.3001 21.7345 32.299 21.7345C32.2978 21.7345 32.2967 21.7345 32.2955 21.7345C32.2944 21.7345 32.2932 21.7345 32.2921 21.7345C32.2909 21.7345 32.2898 21.7345 32.2887 21.7345C32.2875 21.7345 32.2864 21.7345 32.2852 21.7345C32.2841 21.7345 32.2829 21.7345 32.2818 21.7345C32.2806 21.7345 32.2795 21.7345 32.2783 21.7345C32.2772 21.7345 32.276 21.7345 32.2749 21.7345C32.2738 21.7345 32.2726 21.7345 32.2715 21.7345C32.2703 21.7345 32.2692 21.7345 32.268 21.7345C32.2669 21.7345 32.2657 21.7345 32.2646 21.7345C32.2634 21.7345 32.2623 21.7345 32.2612 21.7345C32.26 21.7345 32.2589 21.7345 32.2577 21.7345C32.2566 21.7345 32.2554 21.7345 32.2543 21.7345C32.2531 21.7345 32.252 21.7345 32.2509 21.7345C32.2497 21.7345 32.2486 21.7345 32.2474 21.7345C32.2463 21.7345 32.2451 21.7345 32.244 21.7345C32.2428 21.7345 32.2417 21.7345 32.2405 21.7345C32.2394 21.7345 32.2383 21.7345 32.2371 21.7345C32.236 21.7345 32.2348 21.7345 32.2337 21.7345C32.2325 21.7345 32.2314 21.7345 32.2302 21.7345C32.2291 21.7345 32.228 21.7345 32.2268 21.7345C32.2257 21.7345 32.2245 21.7345 32.2234 21.7345C32.2222 21.7345 32.2211 21.7345 32.22 21.7345C32.2188 21.7345 32.2177 21.7345 32.2165 21.7345C32.2154 21.7345 32.2142 21.7345 32.2131 21.7345C32.2119 21.7345 32.2108 21.7345 32.2097 21.7345C32.2085 21.7345 32.2074 21.7345 32.2062 21.7345C32.2051 21.7345 32.2039 21.7345 32.2028 21.7345C32.2017 21.7345 32.2005 21.7345 32.1994 21.7345C32.1982 21.7345 32.1971 21.7345 32.1959 21.7345C32.1948 21.7345 32.1937 21.7345 32.1925 21.7345C32.1914 21.7345 32.1902 21.7345 32.1891 21.7345C32.1879 21.7345 32.1868 21.7345 32.1857 21.7345C32.1845 21.7345 32.1834 21.7345 32.1822 21.7345C32.1811 21.7345 32.1799 21.7345 32.1788 21.7345C32.1777 21.7345 32.1765 21.7345 32.1754 21.7345C32.1742 21.7345 32.1731 21.7345 32.1719 21.7345C32.1708 21.7345 32.1697 21.7345 32.1685 21.7345C32.1674 21.7345 32.1662 21.7345 32.1651 21.7345C32.1639 21.7345 32.1628 21.7345 32.1617 21.7345C32.1605 21.7345 32.1594 21.7345 32.1582 21.7345C32.1571 21.7345 32.1559 21.7345 32.1548 21.7345C32.1537 21.7345 32.1525 21.7345 32.1514 21.7345C32.1502 21.7345 32.1491 21.7345 32.1479 21.7345C32.1468 21.7345 32.1457 21.7345 32.1445 21.7345C32.1434 21.7345 32.1422 21.7345 32.1411 21.7345C32.14 21.7345 32.1388 21.7345 32.1377 21.7345C32.1365 21.7345 32.1354 21.7345 32.1342 21.7345C32.1331 21.7345 32.132 21.7345 32.1308 21.7345C32.1297 21.7345 32.1285 21.7345 32.1274 21.7345C32.1262 21.7345 32.1251 21.7345 32.124 21.7345C32.1228 21.7345 32.1217 21.7345 32.1205 21.7345C32.1194 21.7345 32.1182 21.7345 32.1171 21.7345C32.116 21.7345 32.1148 21.7345 32.1137 21.7345C32.1125 21.7345 32.1114 21.7345 32.1103 21.7345C32.1091 21.7345 32.108 21.7345 32.1068 21.7345C32.1057 21.7345 32.1045 21.7345 32.1034 21.7345C32.1023 21.7345 32.1011 21.7345 32.1 21.7345C32.0988 21.7345 32.0977 21.7345 32.0965 21.7345C32.0954 21.7345 32.0943 21.7345 32.0931 21.7345C32.092 21.7345 32.0908 21.7345 32.0897 21.7345C32.0886 21.7345 32.0874 21.7345 32.0863 21.7345C32.0851 21.7345 32.084 21.7345 32.0828 21.7345C32.0817 21.7345 32.0806 21.7345 32.0794 21.7345C32.0783 21.7345 32.0771 21.7345 32.076 21.7345C32.0749 21.7345 32.0737 21.7345 32.0726 21.7345C32.0714 21.7345 32.0703 21.7345 32.0691 21.7345C32.068 21.7345 32.0669 21.7345 32.0657 21.7345C32.0646 21.7345 32.0634 21.7345 32.0623 21.7345C32.0611 21.7345 32.06 21.7345 32.0589 21.7345V22.7345ZM33.5827 21.959C31.7217 24.7785 30.5008 27.4328 26.7649 27.7731L26.8556 28.769C31.1766 28.3754 32.6683 25.1596 34.4173 22.5099L33.5827 21.959Z" fill="#FBBA04"/>
</svg>
