<svg width="28" height="37" viewBox="0 0 28 37" fill="none" xmlns="http://www.w3.org/2000/svg">
<path d="M16.3125 1.375H16.8125V0.875H16.3125V1.375ZM1.47852 35.8965L1.12496 36.25L1.47852 35.8965ZM27.25 12.3125H27.75V11.8125H27.25V12.3125ZM16.791 11.834L17.1446 11.4804L16.791 11.834ZM20.4141 27.4199L20.0605 27.0664L20.4141 27.4199ZM7.76758 27.4199L7.36758 27.7199L7.41044 27.7771L7.46758 27.8199L7.76758 27.4199ZM20.4141 25.7109L20.0141 26.0109L20.0569 26.0681L20.1141 26.1109L20.4141 25.7109ZM20.4141 23.0449L20.0605 22.6914L20.4141 23.0449ZM7.76758 23.0449L7.36758 23.3449L7.41044 23.4021L7.46758 23.4449L7.76758 23.0449ZM7.76758 21.3359L7.41402 20.9824L7.76758 21.3359ZM20.4141 21.3359L20.0141 21.6359L20.0569 21.6931L20.1141 21.7359L20.4141 21.3359ZM20.4141 18.6699L20.0605 18.3164L20.4141 18.6699ZM7.76758 18.6699L7.36758 18.9699L7.41044 19.0271L7.46758 19.0699L7.76758 18.6699ZM7.76758 16.9609L7.41402 16.6074L7.76758 16.9609ZM20.4141 16.9609L20.0141 17.2609L20.0569 17.3181L20.1141 17.3609L20.4141 16.9609ZM27.25 10.125V10.625H27.75V10.125H27.25ZM18.5 10.125H18V10.625H18.5V10.125ZM18.5 1.375V0.875H18V1.375H18.5ZM16.8125 10.6719V1.375H15.8125V10.6719H16.8125ZM16.3125 0.875H2.64062V1.875H16.3125V0.875ZM2.64062 0.875C2.0538 0.875 1.53881 1.08612 1.12496 1.49996L1.83207 2.20707C2.05625 1.98289 2.31599 1.875 2.64062 1.875V0.875ZM1.12496 1.49996C0.711119 1.91381 0.5 2.4288 0.5 3.01562H1.5C1.5 2.69099 1.60789 2.43125 1.83207 2.20707L1.12496 1.49996ZM0.5 3.01562V34.7344H1.5V3.01562H0.5ZM0.5 34.7344C0.5 35.3212 0.711119 35.8362 1.12496 36.25L1.83207 35.5429C1.60789 35.3188 1.5 35.059 1.5 34.7344H0.5ZM1.12496 36.25C1.53881 36.6639 2.0538 36.875 2.64062 36.875V35.875C2.31599 35.875 2.05625 35.7671 1.83207 35.5429L1.12496 36.25ZM2.64062 36.875H25.6094V35.875H2.64062V36.875ZM25.6094 36.875C26.1962 36.875 26.7112 36.6639 27.125 36.25L26.4179 35.5429C26.1938 35.7671 25.934 35.875 25.6094 35.875V36.875ZM27.125 36.25C27.5389 35.8362 27.75 35.3212 27.75 34.7344H26.75C26.75 35.059 26.6421 35.3188 26.4179 35.5429L27.125 36.25ZM27.75 34.7344V12.3125H26.75V34.7344H27.75ZM27.25 11.8125H17.9531V12.8125H27.25V11.8125ZM17.9531 11.8125C17.6285 11.8125 17.3687 11.7046 17.1446 11.4804L16.4375 12.1875C16.8513 12.6014 17.3663 12.8125 17.9531 12.8125V11.8125ZM17.1446 11.4804C16.9204 11.2563 16.8125 10.9965 16.8125 10.6719H15.8125C15.8125 11.2587 16.0236 11.7737 16.4375 12.1875L17.1446 11.4804ZM20.1875 26.8047C20.1875 26.8821 20.1625 26.9644 20.0605 27.0664L20.7676 27.7735C21.0303 27.5108 21.1875 27.183 21.1875 26.8047H20.1875ZM20.0605 27.0664C20.0342 27.0927 19.9879 27.125 19.8672 27.125V28.125C20.2022 28.125 20.5205 28.0206 20.7676 27.7735L20.0605 27.0664ZM19.8672 27.125H8.38281V28.125H19.8672V27.125ZM8.38281 27.125C8.26313 27.125 8.16332 27.0917 8.06758 27.0199L7.46758 27.8199C7.73642 28.0216 8.04676 28.125 8.38281 28.125V27.125ZM8.16758 27.1199C8.09577 27.0242 8.0625 26.9244 8.0625 26.8047H7.0625C7.0625 27.1407 7.16595 27.4511 7.36758 27.7199L8.16758 27.1199ZM8.0625 26.8047V26.2578H7.0625V26.8047H8.0625ZM8.0625 26.2578C8.0625 26.1371 8.09478 26.0908 8.12113 26.0645L7.41402 25.3574C7.16694 25.6045 7.0625 25.9228 7.0625 26.2578H8.0625ZM8.12113 26.0645C8.22308 25.9625 8.30541 25.9375 8.38281 25.9375V24.9375C8.00449 24.9375 7.67666 25.0947 7.41402 25.3574L8.12113 26.0645ZM8.38281 25.9375H19.8672V24.9375H8.38281V25.9375ZM19.8672 25.9375C19.9377 25.9375 19.9718 25.9545 20.0141 26.0109L20.8141 25.4109C20.5829 25.1027 20.2524 24.9375 19.8672 24.9375V25.9375ZM20.1141 26.1109C20.1705 26.1532 20.1875 26.1873 20.1875 26.2578H21.1875C21.1875 25.8726 21.0223 25.5421 20.7141 25.3109L20.1141 26.1109ZM20.1875 26.2578V26.8047H21.1875V26.2578H20.1875ZM20.1875 22.4297C20.1875 22.5071 20.1625 22.5894 20.0605 22.6914L20.7676 23.3985C21.0303 23.1358 21.1875 22.808 21.1875 22.4297H20.1875ZM20.0605 22.6914C20.0342 22.7177 19.9879 22.75 19.8672 22.75V23.75C20.2022 23.75 20.5205 23.6456 20.7676 23.3985L20.0605 22.6914ZM19.8672 22.75H8.38281V23.75H19.8672V22.75ZM8.38281 22.75C8.26313 22.75 8.16332 22.7167 8.06758 22.6449L7.46758 23.4449C7.73642 23.6466 8.04676 23.75 8.38281 23.75V22.75ZM8.16758 22.7449C8.09577 22.6492 8.0625 22.5494 8.0625 22.4297H7.0625C7.0625 22.7657 7.16595 23.0761 7.36758 23.3449L8.16758 22.7449ZM8.0625 22.4297V21.8828H7.0625V22.4297H8.0625ZM8.0625 21.8828C8.0625 21.7621 8.09478 21.7158 8.12113 21.6895L7.41402 20.9824C7.16694 21.2295 7.0625 21.5478 7.0625 21.8828H8.0625ZM8.12113 21.6895C8.22308 21.5875 8.30541 21.5625 8.38281 21.5625V20.5625C8.00449 20.5625 7.67666 20.7197 7.41402 20.9824L8.12113 21.6895ZM8.38281 21.5625H19.8672V20.5625H8.38281V21.5625ZM19.8672 21.5625C19.9377 21.5625 19.9718 21.5795 20.0141 21.6359L20.8141 21.0359C20.5829 20.7277 20.2524 20.5625 19.8672 20.5625V21.5625ZM20.1141 21.7359C20.1705 21.7782 20.1875 21.8123 20.1875 21.8828H21.1875C21.1875 21.4976 21.0223 21.1671 20.7141 20.9359L20.1141 21.7359ZM20.1875 21.8828V22.4297H21.1875V21.8828H20.1875ZM20.1875 17.5078V18.0547H21.1875V17.5078H20.1875ZM20.1875 18.0547C20.1875 18.1321 20.1625 18.2144 20.0605 18.3164L20.7676 19.0235C21.0303 18.7608 21.1875 18.433 21.1875 18.0547H20.1875ZM20.0605 18.3164C20.0342 18.3427 19.9879 18.375 19.8672 18.375V19.375C20.2022 19.375 20.5205 19.2706 20.7676 19.0235L20.0605 18.3164ZM19.8672 18.375H8.38281V19.375H19.8672V18.375ZM8.38281 18.375C8.26313 18.375 8.16332 18.3417 8.06758 18.2699L7.46758 19.0699C7.73642 19.2716 8.04676 19.375 8.38281 19.375V18.375ZM8.16758 18.3699C8.09577 18.2742 8.0625 18.1744 8.0625 18.0547H7.0625C7.0625 18.3907 7.16595 18.7011 7.36758 18.9699L8.16758 18.3699ZM8.0625 18.0547V17.5078H7.0625V18.0547H8.0625ZM8.0625 17.5078C8.0625 17.3871 8.09478 17.3408 8.12113 17.3145L7.41402 16.6074C7.16694 16.8545 7.0625 17.1728 7.0625 17.5078H8.0625ZM8.12113 17.3145C8.22308 17.2125 8.30541 17.1875 8.38281 17.1875V16.1875C8.00449 16.1875 7.67666 16.3447 7.41402 16.6074L8.12113 17.3145ZM8.38281 17.1875H19.8672V16.1875H8.38281V17.1875ZM19.8672 17.1875C19.9377 17.1875 19.9718 17.2045 20.0141 17.2609L20.8141 16.6609C20.5829 16.3527 20.2524 16.1875 19.8672 16.1875V17.1875ZM20.1141 17.3609C20.1705 17.4032 20.1875 17.4373 20.1875 17.5078H21.1875C21.1875 17.1226 21.0223 16.7921 20.7141 16.5609L20.1141 17.3609ZM26.75 9.71484V10.125H27.75V9.71484H26.75ZM27.25 9.625H18.5V10.625H27.25V9.625ZM19 10.125V1.375H18V10.125H19ZM18.5 1.875H18.9102V0.875H18.5V1.875ZM18.9102 1.875C19.2348 1.875 19.4945 1.98289 19.7187 2.20707L20.4258 1.49996C20.012 1.08612 19.497 0.875 18.9102 0.875V1.875ZM19.7187 2.20707L26.4179 8.90629L27.125 8.19918L20.4258 1.49996L19.7187 2.20707ZM26.4179 8.90629C26.6421 9.13047 26.75 9.39021 26.75 9.71484H27.75C27.75 9.12802 27.5389 8.61302 27.125 8.19918L26.4179 8.90629Z" fill="#FBBA04"/>
</svg>
