<svg width="28" height="28" viewBox="0 0 28 28" fill="none" xmlns="http://www.w3.org/2000/svg">
<path d="M27.2653 21.6015L21.598 17.822C20.8788 17.3463 19.9147 17.5028 19.383 18.1818L17.7322 20.3043C17.52 20.584 17.1344 20.6652 16.8275 20.4947L16.5134 20.3216C15.4724 19.7542 14.1772 19.0478 11.5675 16.4372C8.95783 13.8265 8.25001 12.5303 7.6826 11.4912L7.51042 11.1772C7.33757 10.8704 7.41719 10.4831 7.69704 10.2692L9.81816 8.61888C10.4968 8.08712 10.6536 7.12334 10.1784 6.40393L6.39895 0.736629C5.91192 0.00403418 4.9348 -0.215886 4.18082 0.237351L1.81096 1.66093C1.06634 2.09869 0.520038 2.80766 0.286612 3.63928C-0.566769 6.74868 0.0752209 12.115 7.98033 20.0211C14.2687 26.3089 18.9501 27.9999 22.1677 27.9999C22.9082 28.0031 23.6459 27.9067 24.3607 27.7134C25.1925 27.4803 25.9016 26.9339 26.3391 26.1891L27.7641 23.8206C28.218 23.0665 27.9982 22.0888 27.2653 21.6015ZM26.9601 23.3419L25.5384 25.7117C25.2242 26.2493 24.7142 26.6446 24.1152 26.8148C21.2447 27.6029 16.2298 26.9501 8.64053 19.3609C1.0513 11.7716 0.398595 6.7571 1.18669 3.88616C1.35707 3.28644 1.75284 2.77579 2.2911 2.46116L4.66096 1.03944C4.98811 0.842597 5.4122 0.938013 5.62354 1.25592L7.67659 4.33825L9.39975 6.92273C9.60611 7.23478 9.53831 7.65302 9.24392 7.88394L7.1223 9.53427C6.47665 10.028 6.29227 10.9213 6.68979 11.6302L6.85825 11.9363C7.45459 13.03 8.19598 14.3906 10.9027 17.0969C13.6095 19.8032 14.9696 20.5446 16.0628 21.1409L16.3694 21.3098C17.0783 21.7073 17.9716 21.5229 18.4653 20.8773L20.1157 18.7557C20.3466 18.4614 20.7647 18.3937 21.0769 18.5998L26.7437 22.3793C27.0618 22.5904 27.1572 23.0148 26.9601 23.3419Z" fill="#FBBA04"/>
<path d="M15.8659 4.66912C20.2447 4.67399 23.7931 8.22252 23.798 12.6013C23.798 12.859 24.0069 13.0679 24.2646 13.0679C24.5223 13.0679 24.7312 12.859 24.7312 12.6013C24.7258 7.70733 20.7598 3.74132 15.8659 3.73596C15.6082 3.73596 15.3993 3.94484 15.3993 4.20254C15.3993 4.46025 15.6082 4.66912 15.8659 4.66912Z" fill="#FBBA04"/>
<path d="M15.8659 7.46868C18.6991 7.47202 20.9951 9.768 20.9985 12.6013C20.9985 12.859 21.2074 13.0679 21.465 13.0679C21.7227 13.0679 21.9316 12.859 21.9316 12.6013C21.9277 9.25282 19.2143 6.53935 15.8659 6.53552C15.6082 6.53552 15.3993 6.7444 15.3993 7.0021C15.3993 7.25981 15.6082 7.46868 15.8659 7.46868Z" fill="#FBBA04"/>
<path d="M15.8659 10.2682C17.1537 10.2698 18.1973 11.3134 18.1989 12.6012C18.1989 12.859 18.4078 13.0678 18.6655 13.0678C18.9231 13.0678 19.132 12.859 19.132 12.6012C19.13 10.7982 17.6689 9.33711 15.8659 9.33508C15.6082 9.33508 15.3993 9.54396 15.3993 9.80166C15.3993 10.0594 15.6082 10.2682 15.8659 10.2682Z" fill="#FBBA04"/>
</svg>
