<svg width="41" height="43" viewBox="0 0 41 43" fill="none" xmlns="http://www.w3.org/2000/svg">
<path d="M20.3686 0.428589C9.22194 0.428589 0.184326 9.76747 0.184326 21.2857C0.184326 32.8038 9.22194 42.1429 20.3686 42.1429C31.5153 42.1429 40.5527 32.8037 40.5527 21.2857C40.5528 9.76747 31.5153 0.428589 20.3686 0.428589ZM31.0273 30.8615L29.4111 32.5318C29.1226 32.8295 28.2777 33.0153 28.2506 33.0153C23.1379 33.0614 18.2152 30.9862 14.5983 27.2484C10.9714 23.4985 8.96086 18.3935 9.01486 13.0926C9.01486 13.0902 9.19989 12.2422 9.48817 11.9471L11.1042 10.2769C11.6956 9.66302 12.8316 9.38559 13.6273 9.6607L13.9673 9.77788C14.7607 10.0527 15.5938 10.9593 15.813 11.7945L16.626 14.8776C16.8452 15.7152 16.5495 16.9069 15.9583 17.518C15.2883 18.2104 15.0056 19.212 15.367 20.1053C16.5213 22.9584 18.7217 25.2398 21.4783 26.4435C22.3544 26.8261 23.3529 26.5358 24.0175 25.8486C24.6116 25.2346 25.7644 24.9294 26.5733 25.1556L29.5565 25.9986C30.3649 26.2281 31.2421 27.0835 31.508 27.9032L31.6214 28.2595C31.8849 29.0795 31.6185 30.2531 31.0273 30.8615Z" fill="#FBBA04"/>
</svg>
