<svg width="35" height="35" viewBox="0 0 35 35" fill="none" xmlns="http://www.w3.org/2000/svg">
<g clip-path="url(#clip0)">
<path d="M11.0833 18.9583V16.9825C11.7171 16.821 12.3246 16.57 12.8875 16.2371L14.2828 17.633C14.5107 17.8606 14.8798 17.8606 15.1077 17.633L16.758 15.9833C16.9856 15.7554 16.9856 15.3863 16.758 15.1584L15.3626 13.7633C15.6953 13.1999 15.946 12.5921 16.1075 11.9583H18.0833C18.4055 11.9583 18.6667 11.6971 18.6667 11.375V9.04167C18.6667 8.71952 18.4055 8.45833 18.0833 8.45833H16.1075C15.946 7.82458 15.6953 7.21704 15.3626 6.65422L16.758 5.25883C16.9856 5.03096 16.9856 4.66182 16.758 4.43396L15.1083 2.78365C14.8804 2.55607 14.5113 2.55607 14.2834 2.78365L12.8883 4.17904C12.3249 3.84635 11.7171 3.5957 11.0833 3.4342V1.45833C11.0833 1.13619 10.8221 0.875 10.5 0.875H8.16667C7.84452 0.875 7.58333 1.13619 7.58333 1.45833V3.4342C6.94959 3.5957 6.34204 3.84635 5.77922 4.17904L4.38383 2.78365C4.15597 2.55607 3.78682 2.55607 3.55896 2.78365L1.90865 4.43339C1.68107 4.66125 1.68107 5.0304 1.90865 5.25826L3.30404 6.65336C2.97135 7.21676 2.7207 7.82458 2.5592 8.45833H0.583333C0.26119 8.45833 0 8.71952 0 9.04167V11.375C0 11.6971 0.26119 11.9583 0.583333 11.9583H2.5592C2.7207 12.5921 2.97135 13.1996 3.30404 13.7625L1.90865 15.1578C1.68107 15.3857 1.68107 15.7548 1.90865 15.9827L3.55839 17.633C3.78626 17.8606 4.1554 17.8606 4.38326 17.633L5.77836 16.2371C6.34176 16.57 6.9493 16.8212 7.58333 16.9825V18.9583C7.58333 19.2805 7.84452 19.5417 8.16667 19.5417H10.5C10.8221 19.5417 11.0833 19.2805 11.0833 18.9583ZM9.91667 16.5142V18.375H8.75V16.5142C8.75029 16.2325 8.5492 15.9913 8.27234 15.9403C7.46712 15.7939 6.70235 15.4777 6.02873 15.0131C5.79688 14.8539 5.48442 14.8824 5.2856 15.0815L3.9714 16.3951L3.14653 15.5703L4.46016 14.2555C4.65926 14.0567 4.68774 13.7442 4.52852 13.5124C4.06368 12.839 3.7478 12.0743 3.6014 11.2693C3.55042 10.9925 3.30916 10.7914 3.02747 10.7917H1.16667V9.625H3.02747C3.30916 9.62528 3.55042 9.42419 3.6014 9.14734C3.7478 8.34241 4.06368 7.57764 4.52852 6.9043C4.68774 6.67244 4.65926 6.35999 4.46016 6.16117L3.14653 4.84639L3.9714 4.02152L5.28617 5.33516C5.48499 5.53426 5.79744 5.56274 6.0293 5.40352C6.70264 4.93868 7.46741 4.6228 8.27234 4.4764C8.5492 4.42541 8.75029 4.18416 8.75 3.90247V2.04167H9.91667V3.90247C9.91638 4.18416 10.1175 4.42541 10.3943 4.4764C11.1993 4.6228 11.964 4.93868 12.6374 5.40352C12.8692 5.56274 13.1817 5.53426 13.3805 5.33516L14.6953 4.02152L15.5201 4.84639L14.2065 6.16117C14.0074 6.35999 13.9789 6.67244 14.1381 6.9043C14.603 7.57764 14.9189 8.34241 15.0653 9.14734C15.1163 9.42419 15.3575 9.62528 15.6392 9.625H17.5V10.7917H15.6392C15.3575 10.7914 15.1163 10.9925 15.0653 11.2693C14.9189 12.0743 14.603 12.839 14.1381 13.5124C13.9789 13.7442 14.0074 14.0567 14.2065 14.2555L15.5201 15.5703L14.6953 16.3951L13.3811 15.0815C13.1823 14.8824 12.8698 14.8539 12.6379 15.0131C11.9643 15.4777 11.1995 15.7939 10.3943 15.9403C10.1175 15.9913 9.91638 16.2325 9.91667 16.5142Z" fill="white"/>
<path d="M9.33317 5.54163C6.75574 5.54163 4.6665 7.63086 4.6665 10.2083C4.6665 12.7857 6.75574 14.875 9.33317 14.875C11.9106 14.875 13.9998 12.7857 13.9998 10.2083C13.997 7.63228 11.9092 5.54447 9.33317 5.54163ZM9.33317 13.7083C7.40031 13.7083 5.83317 12.1412 5.83317 10.2083C5.83317 8.27543 7.40031 6.70829 9.33317 6.70829C11.266 6.70829 12.8332 8.27543 12.8332 10.2083C12.8312 12.1406 11.2655 13.7063 9.33317 13.7083Z" fill="white"/>
<path d="M9.3335 8.45837C8.36707 8.45837 7.5835 9.24194 7.5835 10.2084C7.5835 11.1748 8.36707 11.9584 9.3335 11.9584C10.2999 11.9584 11.0835 11.1748 11.0835 10.2084C11.0835 9.24194 10.2999 8.45837 9.3335 8.45837ZM9.3335 10.7917C9.01135 10.7917 8.75016 10.5305 8.75016 10.2084C8.75016 9.88623 9.01135 9.62504 9.3335 9.62504C9.65564 9.62504 9.91683 9.88623 9.91683 10.2084C9.91683 10.5305 9.65564 10.7917 9.3335 10.7917Z" fill="white"/>
<path d="M22.75 25.9583H21.2427L21.2131 25.8865L22.2786 24.8207C22.5065 24.5931 22.5065 24.2237 22.2786 23.9961L20.6289 22.3464C20.4013 22.1185 20.0319 22.1185 19.8043 22.3464L18.7384 23.4119L18.6667 23.3823V21.875C18.6667 21.5528 18.4055 21.2916 18.0833 21.2916H15.75C15.4279 21.2916 15.1667 21.5528 15.1667 21.875V23.3823L15.0949 23.4119L14.0291 22.3464C13.8015 22.1185 13.432 22.1185 13.2045 22.3464L11.5547 23.9961C11.3269 24.2237 11.3269 24.5931 11.5547 24.8207L12.6203 25.8865L12.5907 25.9583H11.0833C10.7612 25.9583 10.5 26.2195 10.5 26.5416V28.875C10.5 29.1971 10.7612 29.4583 11.0833 29.4583H12.5907L12.6203 29.5301L11.5547 30.5959C11.3269 30.8235 11.3269 31.1929 11.5547 31.4205L13.2045 33.0702C13.432 33.2981 13.8015 33.2981 14.0291 33.0702L15.0949 32.0047L15.1667 32.0343V33.5416C15.1667 33.8638 15.4279 34.125 15.75 34.125H18.0833C18.4055 34.125 18.6667 33.8638 18.6667 33.5416V32.0343L18.7384 32.0047L19.8043 33.0702C20.0319 33.2981 20.4013 33.2981 20.6289 33.0702L22.2786 31.4205C22.5065 31.1929 22.5065 30.8235 22.2786 30.5959L21.2131 29.5301L21.2427 29.4583H22.75C23.0721 29.4583 23.3333 29.1971 23.3333 28.875V26.5416C23.3333 26.2195 23.0721 25.9583 22.75 25.9583ZM22.1667 28.2916H20.8285C20.5708 28.2916 20.3435 28.4611 20.2697 28.708C20.2016 28.9385 20.1099 29.1612 19.996 29.3726C19.8729 29.5996 19.9137 29.8807 20.0965 30.0633L21.0413 31.0083L20.2167 31.8329L19.2716 30.8881C19.0891 30.7053 18.8079 30.6646 18.5809 30.7876C18.3696 30.9015 18.1469 30.9932 17.9164 31.0613C17.6695 31.1351 17.5 31.3624 17.5 31.6202V32.9583H16.3333V31.6202C16.3333 31.3624 16.1639 31.1351 15.9169 31.0613C15.6865 30.9932 15.4637 30.9015 15.2524 30.7876C15.0254 30.6646 14.7443 30.7053 14.5617 30.8881L13.6166 31.8329L12.792 31.0083L13.7368 30.0633C13.9197 29.8807 13.9604 29.5996 13.8374 29.3726C13.7234 29.1612 13.6317 28.9385 13.5636 28.708C13.4899 28.4611 13.2626 28.2916 13.0048 28.2916H11.6667V27.125H13.0048C13.2626 27.125 13.4899 26.9555 13.5636 26.7085C13.6317 26.4781 13.7234 26.2554 13.8374 26.044C13.9604 25.817 13.9197 25.5359 13.7368 25.3533L12.792 24.4082L13.6166 23.5837L14.5617 24.5284C14.7443 24.7113 15.0254 24.752 15.2524 24.629C15.4637 24.5151 15.6865 24.4233 15.9169 24.3553C16.1639 24.2815 16.3333 24.0542 16.3333 23.7964V22.4583H17.5V23.7964C17.5 24.0542 17.6695 24.2815 17.9164 24.3553C18.1469 24.4233 18.3696 24.5151 18.5809 24.629C18.8079 24.752 19.0891 24.7113 19.2716 24.5284L20.2167 23.5837L21.0413 24.4082L20.0965 25.3533C19.9137 25.5359 19.8729 25.817 19.996 26.044C20.1099 26.2554 20.2016 26.4781 20.2697 26.7085C20.3435 26.9555 20.5708 27.125 20.8285 27.125H22.1667V28.2916Z" fill="white"/>
<path d="M16.9168 25.375C15.6283 25.375 14.5835 26.4198 14.5835 27.7083C14.5835 28.9969 15.6283 30.0417 16.9168 30.0417C18.2054 30.0417 19.2502 28.9969 19.2502 27.7083C19.2502 26.4198 18.2054 25.375 16.9168 25.375ZM16.9168 28.875C16.2725 28.875 15.7502 28.3526 15.7502 27.7083C15.7502 27.064 16.2725 26.5417 16.9168 26.5417C17.5611 26.5417 18.0835 27.064 18.0835 27.7083C18.0835 28.3526 17.5611 28.875 16.9168 28.875Z" fill="white"/>
<path d="M27.4168 13.125C26.1283 13.125 25.0835 14.1698 25.0835 15.4583C25.0835 16.7469 26.1283 17.7917 27.4168 17.7917C28.7054 17.7917 29.7502 16.7469 29.7502 15.4583C29.7502 14.1698 28.7054 13.125 27.4168 13.125ZM27.4168 16.625C26.7725 16.625 26.2502 16.1026 26.2502 15.4583C26.2502 14.814 26.7725 14.2917 27.4168 14.2917C28.0611 14.2917 28.5835 14.814 28.5835 15.4583C28.5835 16.1026 28.0611 16.625 27.4168 16.625Z" fill="white"/>
<path d="M34.4168 13.7083H32.3623C32.3008 13.5349 32.2305 13.3651 32.1513 13.1991L33.6036 11.7461C33.8315 11.5183 33.8315 11.1488 33.6036 10.9213L31.9539 9.27153C31.7263 9.04366 31.3569 9.04366 31.129 9.27153L29.6761 10.7239C29.51 10.6447 29.3403 10.5743 29.1668 10.5128V8.45833C29.1668 8.13619 28.9056 7.875 28.5835 7.875H26.2502C25.928 7.875 25.6668 8.13619 25.6668 8.45833V10.5128C25.4934 10.5743 25.3236 10.6447 25.1576 10.7239L23.7046 9.27153C23.4768 9.04366 23.1073 9.04366 22.8798 9.27153L21.23 10.9213C21.0022 11.1488 21.0022 11.5183 21.23 11.7461L22.6824 13.1991C22.6032 13.3651 22.5328 13.5349 22.4713 13.7083H20.4168C20.0947 13.7083 19.8335 13.9695 19.8335 14.2917V16.625C19.8335 16.9471 20.0947 17.2083 20.4168 17.2083H22.4713C22.5328 17.3818 22.6032 17.5516 22.6824 17.7176L21.23 19.1705C21.0022 19.3984 21.0022 19.7678 21.23 19.9954L22.8798 21.6451C23.1073 21.873 23.4768 21.873 23.7046 21.6451L25.1576 20.1928C25.3236 20.272 25.4934 20.3423 25.6668 20.4039V22.4583C25.6668 22.7805 25.928 23.0417 26.2502 23.0417H28.5835C28.9056 23.0417 29.1668 22.7805 29.1668 22.4583V20.4039C29.3403 20.3423 29.51 20.272 29.6761 20.1928L31.129 21.6451C31.3569 21.873 31.7263 21.873 31.9539 21.6451L33.6036 19.9954C33.8315 19.7678 33.8315 19.3984 33.6036 19.1705L32.1513 17.7176C32.2305 17.5516 32.3008 17.3818 32.3623 17.2083H34.4168C34.739 17.2083 35.0002 16.9471 35.0002 16.625V14.2917C35.0002 13.9695 34.739 13.7083 34.4168 13.7083ZM33.8335 16.0417H31.9305C31.6648 16.042 31.4329 16.222 31.3666 16.4792C31.2709 16.8477 31.1242 17.2012 30.9308 17.5291C30.7955 17.7586 30.8328 18.0503 31.0214 18.2386L32.3663 19.5835L31.5415 20.4084L30.1965 19.0634C30.0082 18.8749 29.7166 18.8376 29.487 18.9729C29.1591 19.1665 28.8057 19.3129 28.4371 19.4087C28.1799 19.475 27.9999 19.7072 27.9996 19.9726V21.875H26.8335V19.972C26.8332 19.7063 26.6532 19.4744 26.396 19.4081C26.0274 19.3124 25.674 19.1657 25.3461 18.9723C25.1165 18.837 24.8249 18.8743 24.6366 19.0629L23.2916 20.4078L22.4668 19.583L23.8117 18.238C24.0003 18.0497 24.0376 17.7581 23.9023 17.5285C23.7086 17.2006 23.5622 16.8472 23.4665 16.4786C23.4001 16.2214 23.168 16.0414 22.9025 16.0411H21.0002V14.875H22.9031C23.1689 14.8747 23.4007 14.6947 23.4671 14.4375C23.5628 14.0689 23.7095 13.7155 23.9029 13.3876C24.0382 13.158 24.0009 12.8664 23.8123 12.6781L22.4673 11.3331L23.2922 10.5083L24.6372 11.8532C24.8254 12.0418 25.1171 12.0791 25.3467 11.9438C25.6745 11.7501 26.028 11.6037 26.3966 11.508C26.6538 11.4417 26.8338 11.2095 26.8341 10.9441V9.04167H28.0007V10.9446C28.001 11.2104 28.181 11.4422 28.4382 11.5086C28.8068 11.6043 29.1603 11.751 29.4881 11.9444C29.7177 12.0797 30.0094 12.0424 30.1976 11.8538L31.5429 10.5088L32.3675 11.3337L31.0225 12.6787C30.8339 12.8669 30.7966 13.1586 30.9319 13.3882C31.1256 13.716 31.2723 14.0695 31.3677 14.4381C31.4341 14.6953 31.6662 14.8753 31.932 14.8756H33.8335V16.0417Z" fill="white"/>
</g>
<defs>
<clipPath id="clip0">
<rect width="35" height="35" fill="white"/>
</clipPath>
</defs>
</svg>
